<svg width="328" height="71" viewBox="0 0 328 71" fill="none" xmlns="http://www.w3.org/2000/svg">
<path d="M58.9228 57.1384C58.3828 54.4384 55.9028 52.5384 53.1228 52.5184C50.2128 52.4884 46.2028 53.5384 37.0328 55.4784C37.0328 55.4784 16.5128 60.2184 2.88281 49.3984C2.88281 49.3984 4.43281 53.8184 8.86281 58.6884L12.8628 59.4984C14.3928 59.8084 16.0728 59.9584 17.9728 59.9584C20.2628 59.9584 22.6528 59.7384 24.9628 59.5284C27.3428 59.3084 29.8028 59.0884 32.2428 59.0884C37.3028 59.0884 43.8728 59.9284 49.8528 66.4784L50.4528 67.1384C51.6028 66.5884 52.7628 65.9684 53.9228 65.2384C55.2028 64.4284 56.7928 63.5384 57.6428 62.2984C58.5728 60.9384 59.3128 59.1484 58.9228 57.1584V57.1384Z" fill="url(#paint0_linear_128_5910)"/>
<path d="M26.9159 69.1968C33.9159 70.7168 41.1559 70.8368 47.9359 68.2068C38.8759 57.2168 24.2059 64.1368 12.3359 62.0268C16.1659 65.3268 21.4259 68.0668 26.9159 69.1968Z" fill="url(#paint1_linear_128_5910)"/>
<path d="M34.5938 53.4781C42.8538 51.6181 50.2837 50.0081 50.2837 50.0081C63.9937 47.1781 61.1138 59.5281 61.1138 59.5281C69.3538 50.1581 69.7238 43.5381 69.7238 43.5381C68.2138 28.1481 41.1437 44.7881 41.1437 44.7881C40.9437 44.8981 40.7438 44.9981 40.5438 45.1081C40.4338 45.2881 40.3237 45.4681 40.2137 45.6481C38.7437 48.0081 36.8238 50.8281 34.5938 53.4781Z" fill="url(#paint2_linear_128_5910)"/>
<path d="M19.3424 21.4593C20.7924 22.4993 22.8424 21.5393 22.9624 19.7593C23.1324 17.4193 22.4824 14.2793 19.1324 11.2893C19.1324 11.2893 25.5024 9.17933 25.3924 2.22933C25.3624 0.569327 23.5924 -0.490673 22.1024 0.229327C18.9124 1.74933 13.6724 4.65933 9.87237 8.80933C9.79237 9.00933 7.59237 14.4193 7.68237 19.4193C9.79237 18.0193 13.5024 17.2893 19.3424 21.4693V21.4593Z" fill="url(#paint3_linear_128_5910)"/>
<path d="M64.0925 23.2613C62.9325 22.2413 61.6525 21.3613 60.2625 20.6613C55.6525 18.3513 50.1925 18.1712 45.3325 19.9612C42.8025 20.8912 40.4825 22.4513 38.4325 24.1913C36.2825 26.0213 34.7425 28.4613 32.5325 30.2513C28.6325 33.4013 23.1125 34.4113 18.3225 32.8913C13.5325 31.3713 9.51254 27.4412 8.11255 22.6212C7.82255 21.6112 7.69255 20.5212 7.67255 19.4012C7.59255 14.4012 9.78255 8.99125 9.86255 8.79125V8.78125C8.38254 10.3212 5.92255 13.8612 5.92255 13.8612C4.45255 15.8412 3.44255 18.1313 2.56255 20.4313C0.732545 25.2513 -0.367455 31.3212 0.112545 36.4712C0.572545 41.3312 3.04255 46.3012 7.44255 48.4112C9.75255 49.5112 12.3425 49.7312 14.9225 49.5412L15.7625 43.3512C15.8425 42.7312 16.4225 42.2913 17.0425 42.3713C17.6625 42.4613 18.1025 43.0312 18.0225 43.6512L16.8525 52.2512L16.6025 54.0513V54.1512C16.3125 58.1512 16.9025 61.8113 19.8725 62.1413C25.0225 62.7113 30.1025 58.6812 34.2125 53.9212C34.3425 53.7712 34.4625 53.6212 34.5925 53.4712C36.8225 50.8312 38.7525 48.0013 40.2125 45.6413C40.3325 45.4513 40.4325 45.2812 40.5425 45.1012C41.7125 43.1812 42.5625 41.6213 42.9825 40.8213C44.5725 40.1013 46.1725 39.3513 47.7825 38.5513C51.6025 36.6613 55.9125 34.7312 60.1425 34.1912C64.3725 33.6512 69.3025 35.5112 70.6325 39.5612C71.2525 33.5012 68.6325 27.2713 64.0925 23.2613ZM43.2225 32.2313C42.3525 32.2313 41.6525 31.5313 41.6525 30.6613C41.6525 29.7913 42.3525 29.0913 43.2225 29.0913C44.0925 29.0913 44.7925 29.7913 44.7925 30.6613C44.7925 31.5313 44.0925 32.2313 43.2225 32.2313Z" fill="url(#paint4_linear_128_5910)"/>
<path d="M90.6378 39.0183H97.9678C100.828 39.0183 103.068 36.5883 103.068 33.4883C103.068 30.3883 100.878 27.9883 97.9678 27.9883H90.6378C87.7578 27.9883 85.5078 30.4083 85.5078 33.4883C85.5078 36.5683 87.7578 39.0183 90.6378 39.0183ZM91.9578 31.5683H96.6778C97.9378 31.5683 98.7478 32.3183 98.7478 33.4883C98.7478 34.4383 98.1078 35.4083 96.6778 35.4083H91.9578C90.5278 35.4083 89.8878 34.4483 89.8878 33.4883C89.8878 32.3283 90.6978 31.5683 91.9578 31.5683Z" fill="#0091D0"/>
<path d="M102.007 27.0084C103.017 27.0084 103.827 26.1884 103.827 25.1884C103.827 24.1884 103.007 23.3684 102.007 23.3684H96.7166V21.9684C96.7166 20.8984 95.7166 20.1484 94.2766 20.1484C92.8366 20.1484 91.8366 20.8984 91.8366 21.9684V23.3684H86.5466C85.5466 23.3684 84.7266 24.1884 84.7266 25.1884C84.7266 26.1884 85.5466 27.0084 86.5466 27.0084H101.997H102.007Z" fill="#0091D0"/>
<path d="M113.107 28.9075H111.217V23.0075C111.217 21.7675 110.267 20.9375 108.847 20.9375C107.427 20.9375 106.477 21.7875 106.477 23.0075V40.5975C106.477 41.8175 107.457 42.6675 108.847 42.6675C110.237 42.6675 111.217 41.8375 111.217 40.5975V32.9175H113.107C114.217 32.9175 115.057 32.0575 115.057 30.9075C115.057 29.7575 114.217 28.8975 113.107 28.8975V28.9075Z" fill="#0091D0"/>
<path d="M110.126 45.9172H91.6862V42.1872C91.6862 40.9672 90.7063 40.1172 89.3163 40.1172C87.9263 40.1172 86.9062 40.9672 86.9062 42.1872V47.5172C86.9062 48.9272 87.7263 49.7372 89.1562 49.7372H110.126C111.196 49.7372 112.076 48.8772 112.076 47.8272C112.076 46.7772 111.206 45.9172 110.126 45.9172Z" fill="#0091D0"/>
<path d="M142.038 31.9097H140.178C141.028 29.2597 141.628 26.6097 141.988 23.7997C142.068 23.0797 141.918 22.4797 141.548 22.0597C141.178 21.6497 140.608 21.4297 139.888 21.4297H118.528C117.508 21.4297 116.678 22.2797 116.678 23.3097C116.678 24.3397 117.508 25.1597 118.528 25.1597H137.148C136.848 27.4297 136.288 29.6897 135.468 31.9097H116.958C115.918 31.9097 115.078 32.7597 115.078 33.7897C115.078 34.8197 115.918 35.6997 116.958 35.6997H127.058V39.4397H118.428C117.388 39.4397 116.548 40.2897 116.548 41.3197C116.548 42.3497 117.398 43.1997 118.428 43.1997H137.358V48.0897C137.358 49.3097 138.308 50.1297 139.728 50.1297C141.148 50.1297 142.068 49.3097 142.068 48.0897V41.6797C142.068 40.2497 141.258 39.4297 139.848 39.4297H131.738V35.6897H142.018C143.058 35.6897 143.898 34.8297 143.898 33.7797C143.898 32.7297 143.048 31.8997 142.018 31.8997L142.038 31.9097Z" fill="#0091D0"/>
<path d="M171.469 45.95H153.249V42.35C153.249 41.09 152.299 40.25 150.869 40.25C149.439 40.25 148.469 41.11 148.469 42.35V47.53C148.469 48.94 149.289 49.75 150.719 49.75H171.469C172.529 49.75 173.379 48.9 173.379 47.87C173.379 46.84 172.499 45.96 171.469 45.96V45.95Z" fill="#0091D0"/>
<path d="M167.094 35.968C167.094 35.418 166.854 34.888 166.434 34.518C166.044 34.178 165.554 34.018 165.054 34.088C162.294 34.498 159.364 34.818 156.124 35.048V30.148C156.124 28.998 155.214 28.168 153.964 28.168C152.714 28.168 151.774 28.978 151.774 30.148V35.288C150.434 35.338 149.054 35.368 147.724 35.398H147.554C146.564 35.398 145.734 36.268 145.734 37.288C145.734 38.308 146.634 39.198 147.714 39.198C154.394 39.098 159.984 38.688 165.304 37.908C166.324 37.758 167.094 36.928 167.094 35.968Z" fill="#0091D0"/>
<path d="M174.403 29.6075H172.513V23.0975C172.513 21.8475 171.513 20.9375 170.143 20.9375C168.773 20.9375 167.773 21.8675 167.773 23.0975V41.5175C167.773 42.7675 168.773 43.6775 170.143 43.6775C171.513 43.6775 172.513 42.7875 172.513 41.5175V33.6275H174.403C175.513 33.6275 176.353 32.7675 176.353 31.6175C176.353 30.4675 175.513 29.6075 174.403 29.6075Z" fill="#0091D0"/>
<path d="M148.79 25.4392H160.04C159.94 27.4892 159.68 29.4092 159.26 31.2992C159.16 31.8592 159.29 32.3792 159.64 32.7992C160.05 33.2892 160.74 33.5892 161.47 33.5892C162.6 33.5892 163.53 32.7992 163.78 31.6292C164.25 29.3892 164.53 26.9692 164.67 24.0092C164.67 22.0992 163.51 21.6992 162.54 21.6992H148.78C147.76 21.6992 146.93 22.5492 146.93 23.5792C146.93 24.6092 147.76 25.4292 148.78 25.4292L148.79 25.4392Z" fill="#0091D0"/>
<path d="M197.743 34.3197C197.743 33.7997 197.493 33.2697 197.083 32.9097C196.693 32.5697 196.193 32.3997 195.703 32.4697C193.033 32.8697 190.103 33.2097 186.773 33.5197V29.6597C186.773 28.5097 185.863 27.6797 184.613 27.6797C183.363 27.6797 182.423 28.4897 182.423 29.6597V33.8597C181.013 33.9497 179.563 34.0297 178.133 34.0897C177.163 34.1197 176.383 34.9697 176.383 35.9697C176.383 36.4497 176.583 36.9097 176.943 37.2597C177.313 37.6197 177.813 37.8197 178.333 37.8197C178.353 37.8197 178.373 37.8197 178.393 37.8197C185.133 37.4997 190.733 36.9997 196.013 36.2197C197.013 36.0697 197.743 35.2697 197.743 34.3097V34.3197Z" fill="#0091D0"/>
<path d="M205.06 27.1575H203.17V23.0975C203.17 21.8475 202.17 20.9375 200.8 20.9375C199.43 20.9375 198.43 21.8675 198.43 23.0975V36.2175C198.43 37.4475 199.45 38.3775 200.8 38.3775C202.15 38.3775 203.17 37.4675 203.17 36.2175V31.2075H205.06C206.15 31.2075 207.01 30.3175 207.01 29.1675C207.01 28.0175 206.17 27.1575 205.06 27.1575Z" fill="#0091D0"/>
<path d="M179.436 25.3792H190.676C190.506 27.0192 190.246 28.4592 189.876 29.7792C189.736 30.3192 189.836 30.8292 190.166 31.2492C190.576 31.7792 191.286 32.0892 192.066 32.0892C193.206 32.0892 194.106 31.3592 194.436 30.1692C194.946 28.0492 195.156 25.9692 195.296 24.0392C195.366 23.3192 195.206 22.7292 194.836 22.3192C194.466 21.9092 193.906 21.6992 193.166 21.6992H179.436C178.416 21.6992 177.586 22.5292 177.586 23.5492C177.586 24.5692 178.416 25.3692 179.436 25.3692V25.3792Z" fill="#0091D0"/>
<path d="M198.007 38.6172H184.337C180.977 38.6172 178.438 41.0372 178.438 44.2372C178.438 47.4372 180.977 49.8872 184.337 49.8872H198.007C201.387 49.8872 203.938 47.4572 203.938 44.2372C203.938 41.0172 201.387 38.6172 198.007 38.6172ZM197.188 46.2172H185.177C183.977 46.2172 183.197 45.4372 183.197 44.2372C183.197 43.0372 183.997 42.2872 185.177 42.2872H197.188C198.408 42.2872 199.197 43.0472 199.197 44.2372C199.197 45.4272 198.408 46.2172 197.188 46.2172Z" fill="#0091D0"/>
<path d="M221.644 43.6586C221.214 43.3286 220.694 43.2286 220.174 43.3786C217.334 44.1386 214.574 44.3786 212.674 44.4386V26.2386H219.524C220.614 26.2386 221.504 25.3686 221.504 24.2886C221.504 23.2086 220.604 22.3086 219.524 22.3086H210.364C209.034 22.3086 208.234 23.1186 208.234 24.4686V46.3786C208.234 47.7286 209.014 48.4786 210.424 48.4786C214.134 48.4486 217.534 48.0486 220.794 47.2786C221.814 47.0786 222.454 46.3286 222.454 45.3386C222.454 44.6786 222.144 44.0286 221.644 43.6486V43.6586Z" fill="#0091D0"/>
<path d="M233.019 20.9375C231.789 20.9375 230.859 21.7875 230.859 22.9175V48.0175C230.859 49.1475 231.789 49.9975 233.019 49.9975C234.249 49.9975 235.179 49.1475 235.179 48.0175V22.9175C235.179 21.7875 234.249 20.9375 233.019 20.9375Z" fill="#0091D0"/>
<path d="M226.363 20.9375C225.133 20.9375 224.233 21.7575 224.233 22.8875V32.5575H219.653C218.583 32.5575 217.703 33.4275 217.703 34.5075C217.703 35.5875 218.573 36.4875 219.653 36.4875H224.233V48.0575C224.233 49.1875 225.133 50.0075 226.363 50.0075C227.593 50.0075 228.523 49.1875 228.523 48.0575V22.8975C228.523 21.7675 227.613 20.9475 226.363 20.9475V20.9375Z" fill="#0091D0"/>
<path d="M263.088 20.9375C261.718 20.9375 260.688 21.8975 260.688 23.1575V47.7675C260.688 49.0375 261.718 49.9875 263.088 49.9875C264.458 49.9875 265.497 49.0575 265.497 47.7675V23.1575C265.497 21.8675 264.488 20.9375 263.088 20.9375Z" fill="#0091D0"/>
<path d="M286.119 42.977C282.299 43.797 278.429 44.227 274.289 44.317V33.067H284.019C285.069 33.067 285.929 32.197 285.929 31.117C285.929 30.037 285.049 29.207 284.019 29.207H271.669C270.319 29.207 269.539 29.987 269.539 31.337V46.387C269.539 47.037 269.719 47.547 270.079 47.897C270.439 48.247 270.959 48.427 271.629 48.427C271.659 48.427 271.689 48.427 271.729 48.427C276.169 48.367 281.389 48.167 286.479 47.047C287.599 46.847 288.319 46.037 288.319 44.987C288.319 44.337 288.049 43.727 287.589 43.347C287.179 43.007 286.659 42.887 286.109 42.987L286.119 42.977Z" fill="#0091D0"/>
<path d="M293.767 20.9375C292.417 20.9375 291.397 21.8675 291.397 23.0975V35.5275H285.347C284.257 35.5275 283.367 36.4175 283.367 37.5075C283.367 38.5975 284.277 39.4875 285.347 39.4875H291.397V47.8075C291.397 49.0575 292.417 49.9975 293.767 49.9975C295.117 49.9975 296.147 49.0575 296.147 47.8075V23.1075C296.147 21.8775 295.127 20.9475 293.767 20.9475V20.9375Z" fill="#0091D0"/>
<path d="M271.278 26.2386H284.368C285.438 26.2386 286.318 25.3686 286.318 24.2886C286.318 23.2086 285.448 22.3086 284.368 22.3086H271.278C270.208 22.3086 269.328 23.1986 269.328 24.2886C269.328 25.3786 270.198 26.2386 271.278 26.2386Z" fill="#0091D0"/>
<path d="M302.267 36.8078C306.697 36.6978 310.077 36.3778 313.247 35.7578C314.267 35.5778 314.907 34.8978 314.907 33.9678C314.907 33.3778 314.657 32.8178 314.227 32.4778C313.867 32.1878 313.407 32.0778 312.947 32.1878C310.457 32.7178 307.747 33.0078 304.457 33.1278V30.6478H311.587C312.937 30.6478 313.717 29.8578 313.717 28.4878V23.8878C313.717 22.5378 312.937 21.7578 311.587 21.7578H301.627C300.657 21.7578 299.867 22.5478 299.867 23.5178C299.867 24.4878 300.677 25.2778 301.627 25.2778H309.367V27.2378H302.207C300.857 27.2378 300.077 28.0178 300.077 29.3678V34.7278C300.077 35.3978 300.257 35.9078 300.627 36.2678C300.987 36.6178 301.507 36.7978 302.177 36.7978C302.207 36.7978 302.237 36.7978 302.277 36.7978L302.267 36.8078Z" fill="#0091D0"/>
<path d="M324.817 38.0391C323.417 38.0391 322.477 38.8491 322.477 40.0491V40.5291H306.047V40.0491C306.047 38.8691 305.087 38.0391 303.707 38.0391C302.327 38.0391 301.367 38.8491 301.367 40.0491V47.5891C301.367 48.2591 301.567 48.8091 301.957 49.1791C302.337 49.5491 302.887 49.7291 303.567 49.6891L322.647 48.8691C322.967 49.5891 323.747 49.9991 324.827 49.9991C326.257 49.9991 327.137 49.2491 327.137 48.0491V40.0491C327.137 38.8491 326.207 38.0391 324.827 38.0391H324.817ZM322.477 45.3091L306.047 45.9991V44.0491H322.477V45.3191V45.3091Z" fill="#0091D0"/>
<path d="M324.977 20.9397C323.687 20.9397 322.817 21.6997 322.817 22.8197V26.9997H320.087V22.7797C320.087 21.6697 319.227 20.9297 317.957 20.9297C316.687 20.9297 315.797 21.6797 315.797 22.7797V35.8397C315.797 36.9297 316.667 37.6597 317.957 37.6597C319.247 37.6597 320.087 36.9397 320.087 35.8397V30.9197H322.817V35.8097C322.817 36.9397 323.667 37.6597 324.977 37.6597C326.287 37.6597 327.137 36.9297 327.137 35.8097V22.8097C327.137 21.6797 326.267 20.9297 324.977 20.9297V20.9397Z" fill="#0091D0"/>
<path d="M247.099 21.2973C242.119 21.2973 238.359 24.4673 238.359 28.6573V42.2473C238.359 42.9773 238.469 43.6573 238.679 44.3073L241.229 41.5373C241.229 41.5373 242.789 40.5573 241.309 36.7173C240.959 35.8073 240.799 34.8073 240.979 33.8473C241.139 33.0173 241.539 32.1373 242.459 31.6673C242.459 31.6673 242.189 33.7873 244.379 35.1073C244.889 35.4173 245.309 35.8573 245.579 36.3873C245.999 37.1873 246.279 38.3873 245.449 39.7473C245.449 39.7473 248.639 38.5073 249.949 42.6773C249.949 42.6773 251.169 45.1173 252.189 45.1073C252.189 45.1073 249.029 47.6173 245.199 43.5473C245.199 43.5473 243.819 42.3973 243.069 43.6773C242.839 44.0673 242.799 44.5273 242.869 44.9673C243.029 45.9573 243.509 47.9773 244.799 49.3273C245.529 49.4773 246.289 49.5573 247.099 49.5573C252.179 49.5573 255.869 46.4773 255.869 42.2273V28.6373C255.869 24.4373 252.099 21.2773 247.099 21.2773V21.2973ZM249.019 36.7773C248.389 36.7773 247.879 36.2673 247.879 35.6373C247.879 35.0073 248.389 34.4973 249.019 34.4973C249.649 34.4973 250.159 35.0073 250.159 35.6373C250.159 36.2673 249.649 36.7773 249.019 36.7773ZM249.499 32.4173C248.319 32.4173 247.369 31.4673 247.369 30.2873C247.369 29.1073 248.319 28.1573 249.499 28.1573C250.679 28.1573 251.629 29.1073 251.629 30.2873C251.629 31.4673 250.679 32.4173 249.499 32.4173Z" fill="url(#paint5_linear_128_5910)"/>
<defs>
<linearGradient id="paint0_linear_128_5910" x1="7.90281" y1="66.8484" x2="61.3728" y2="42.3784" gradientUnits="userSpaceOnUse">
<stop stop-color="#79CED6"/>
<stop offset="1" stop-color="#FCBA63"/>
</linearGradient>
<linearGradient id="paint1_linear_128_5910" x1="11.1059" y1="73.8368" x2="64.5659" y2="49.3568" gradientUnits="userSpaceOnUse">
<stop stop-color="#79CED6"/>
<stop offset="1" stop-color="#FCBA63"/>
</linearGradient>
<linearGradient id="paint2_linear_128_5910" x1="9.74375" y1="70.8581" x2="63.2038" y2="46.3781" gradientUnits="userSpaceOnUse">
<stop stop-color="#79CED6"/>
<stop offset="1" stop-color="#FCBA63"/>
</linearGradient>
<linearGradient id="paint3_linear_128_5910" x1="7.90838" y1="15.5536" x2="30.7489" y2="8.00395" gradientUnits="userSpaceOnUse">
<stop stop-color="#56C5D0"/>
<stop offset="1" stop-color="#2B83C5"/>
</linearGradient>
<linearGradient id="paint4_linear_128_5910" x1="54.1725" y1="27.9712" x2="6.07255" y2="37.4112" gradientUnits="userSpaceOnUse">
<stop stop-color="#56C5D0"/>
<stop offset="1" stop-color="#047BC1"/>
</linearGradient>
<linearGradient id="paint5_linear_128_5910" x1="246.709" y1="48.1073" x2="247.569" y2="20.8373" gradientUnits="userSpaceOnUse">
<stop stop-color="#79CED6"/>
<stop offset="1" stop-color="#FCBA63"/>
</linearGradient>
</defs>
</svg>
