<?xml version="1.0" encoding="UTF-8"?>
<svg id="Layer_1" xmlns="http://www.w3.org/2000/svg" version="1.1" xmlns:xlink="http://www.w3.org/1999/xlink" viewBox="0 0 500 500">
  <!-- Generator: Adobe Illustrator 29.1.0, SVG Export Plug-In . SVG Version: 2.1.0 Build 142)  -->
  <defs>
    <style>
      .st0 {
        clip-path: url(#clippath-6);
      }

      .st1 {
        clip-path: url(#clippath-7);
      }

      .st2 {
        clip-path: url(#clippath-4);
      }

      .st3 {
        fill: #333335;
      }

      .st4 {
        fill: #e1c06f;
      }

      .st5 {
        fill: #f6f6f6;
      }

      .st6 {
        fill: #9b9b9b;
      }

      .st7 {
        fill: #f2c977;
      }

      .st8 {
        fill: #1c1c1c;
      }

      .st9 {
        fill: #df6a5b;
      }

      .st10 {
        fill: #d0a180;
      }

      .st11 {
        fill: #376ea2;
      }

      .st12 {
        fill: #5b524b;
      }

      .st13 {
        clip-path: url(#clippath-5);
      }

      .st14 {
        fill: #d8d8d8;
      }

      .st15 {
        fill: #7799b7;
      }

      .st16 {
        fill: #b98a6c;
      }

      .st17 {
        fill: #282829;
      }

      .st18 {
        fill: #ffe9c6;
      }

      .st19 {
        fill: #ffc6af;
      }

      .st20 {
        fill: #dc816a;
      }

      .st21 {
        fill: #7ca499;
      }

      .st22 {
        fill: #ffae94;
      }
    </style>
    <clipPath id="clippath-4">
      <path class="st4" d="M119.62,744.84c.09,4.33-.17,8.67-.08,13,.09,4.33.15,8.66.24,12.99.09,4.33.76,8.65.85,12.98.09,4.33.27,8.66.35,12.99.09,4.33.37,8.66.45,12.99.09,4.33-.13,8.67-.04,13,.07,3.72.09,7.56.17,11.45.08,3.79.36,7.62.53,11.44.17,3.84.32,7.67.67,11.43.29,3.03.66,6.16,1.07,9.28.41,3.13.69,6.27,1.56,9.2,2.03,6.79,2.25,6.14,9.27,7.45,4.77.89,9.47,2.15,14.24,3,4.01.71,8.12.87,12.14,1.55,4.02.68,7.95,1.86,11.98,2.51,4.02.65,8.1.98,12.13,1.6,4.03.62,8.05,1.26,12.09,1.84s8.02,1.49,12.06,2.04c4.04.55,8.06,1.28,12.1,1.8,4.04.52,8.16.43,12.21.92,4.72.57,9.47.83,14.2,1.36,4.73.53,9.41,1.4,14.14,1.88s9.46.97,14.19,1.41c4.4.41,11.39,3.06,14.83-.76,2.53-2.8,2.13-7.75.34-10.86-2.96-5.14-9.56-7.66-14.36-10.72-3.94-2.51-7.61-5.44-11.54-7.95-3.94-2.51-7.83-5.09-11.76-7.6-3.94-2.51-7.82-5.1-11.76-7.61-3.27-2.08-7.1-3.7-9.98-6.33-2.96-2.7-5.46-5.95-6.64-9.77-1-3.23-1.19-6.76-1.19-10.14,0-3.98.59-7.97.7-11.98.11-3.98.69-7.96.88-11.96.19-3.99-.41-8.02-.19-12.01s1-7.95,1.23-11.94c.22-3.99.18-8,.36-11.99.19-4,.26-8,.37-11.98.11-4.01.58-8.23.59-12.21-3.96-.95-8.44-1.51-12.78-2.04-4.14-.5-8.39-.85-12.66-1.11s-8.53,0-12.71-.14-8.63-.52-12.68-.69c-4.48-.19-8.97-.25-13.45-.44s-8.95-.52-13.43-.71c-4.48-.19-8.97-.22-13.45-.41s-8.97-.27-13.45-.46c-.9-.04-2.15-.78-2.87-.25-1.03.76-.95,2.64-.92,3.92Z"/>
    </clipPath>
    <clipPath id="clippath-5">
      <path class="st7" d="M174.6,765.99c.49,4.3,1.28,8.57,1.77,12.88s.95,8.61,1.44,12.91c.49,4.3.93,8.61,1.42,12.92.49,4.3.75,8.63,1.24,12.94.49,4.3,1.11,8.59,1.6,12.9.49,4.3.49,8.66.98,12.97.42,3.69,1.53,7.43,1.98,11.3.43,3.76.84,7.57,1.37,11.36.53,3.81.42,7.72,1.12,11.42.57,2.99,1.4,6.05,2.1,9.12s1.99,5.94,3.13,8.77c2.66,6.57,2.4,5.85,9.51,6.5,4.83.44,9.59,1.69,14.42,2.08,4.06.33,8.14.56,12.2.86s8.16.23,12.22.5c4.07.27,8.12.81,12.19,1.04s8.15.32,12.22.53,8.14.51,12.21.68c4.07.17,8.17-.25,12.24-.11,4.07.14,8.13.61,12.21.72,4.75.13,9.5.56,14.25.64s9.51-.17,14.27-.13c4.75.04,9.51.5,14.26.5,4.42,0,11.45,1.37,14.53-2.76,2.25-3.03,1.18-7.52-.89-10.45-3.43-4.84-9.76-7.2-14.82-9.79-4.15-2.13-8.37-4.13-12.53-6.27-4.15-2.13-8.33-4.22-12.48-6.35-4.15-2.13-8.29-4.29-12.45-6.42-3.45-1.77-6.84-3.96-9.95-6.3-3.2-2.42-5.96-5.15-7.5-8.84-1.3-3.12-1.37-6.55-1.69-9.92-.37-3.96-1.19-7.9-1.45-11.91-.26-3.98.15-8-.04-12s-.83-7.96-.98-11.96c-.15-3.99-.34-7.99-.49-11.98-.15-4,.18-8.01,0-12-.19-4-.37-8-.63-11.98s-.94-8.02-1.31-11.99c-4.04-.57-8.36-.71-12.73-.83-4.17-.11-8.43-.17-12.7-.02s-8.51.52-12.68.78c-4.36.26-8.63.48-12.68.69-4.48.23-8.96.35-13.44.58-4.48.23-8.97.17-13.45.4-4.48.23-8.95.61-13.43.84-4.48.23-8.97.29-13.44.52-.9.05-1.6.75-2.28,1.35-.96.85-1.01,2.04-.87,3.31Z"/>
    </clipPath>
    <clipPath id="clippath-6">
      <path class="st19" d="M195.24,202.02c-.25-1.26-.03-2.59-.11-3.86-.09-1.48-.29-6.3.49-11.77.54-3.81,1.97-7.83,2.92-11.44,1.44-5.5,3.08-10.09,5.42-9.99,3.61.16,7.22.51,10.82.9,3.59.39,7.09,1.43,10.66,2.05,3.56.61,7.08,1.35,10.6,2.18,4.7,1.12,7.34,3.71,8.27,7.6.84,3.51.21,7.77-.35,11.93-.57,4.26-1.37,8.48-1.73,11.81-.4,3.73-.73,7.23-2.24,9.97-1.51,2.73-4.1,4.88-8,6.23-4.08,1.41-8.55,1.39-12.86,1.25-5.63-.19-11.7-.68-16.26-3.98-4.09-2.96-6.61-7.86-7.62-12.87Z"/>
    </clipPath>
    <clipPath id="clippath-7">
      <path class="st7" d="M127.38,232.36c-.05.1-.29.11-.34.21-1.7,3.51-2.73,7.33-4.3,10.9-1.57,3.57-3.52,6.98-4.97,10.6-1.45,3.62-2.62,7.36-3.94,11.02-1.32,3.67-2.97,7.24-4.17,10.95-1.19,3.71-2,7.55-3.06,11.31-.27.96-.54,2.04-.25,3,.4,1.29,1.75,2.27,3.06,2.6,4.44,1.13,8.78-1.99,12.52-4.63,2.97-2.1,5.76-4.45,8.71-6.58,2.95-2.13,6.28-3.73,9.21-5.89,2.93-2.16,5.76-4.45,8.68-6.62,2.92-2.17,5.85-4.32,8.77-6.5,3.19-2.38,6.56-4.31,9.86-6.31s6.78-3.87,10.11-5.95c3.26-2.04,6.09-4.75,9.21-7.25,3.61-2.89,7.65-5.25,11.37-8.03,3.73-2.78,7.27-5.8,11.24-8.17,3.98-2.38,8.21-4.28,12.55-5.95,3.36-1.3,7.04-3.03,10.81-4.14s7.78-1.94,11.46-.89c3.75,1.06,7.21,3.17,11.11,3.15,1.59,0,3.31-.25,4.05-1.65.42-.79.97-1.7.98-2.6.1-7.57-2.68-9.59-9.58-10.47-5.28-.67-7.95-2.64-12.84-4.97-4.25-2.02-8.68-4.25-13.3-5.92s-9.49-2.56-14.11-3.55c-3.42-.73-6.92-1.07-10.41-1.4s-7.02-1.07-10.52-.86c-3.51.22-6.84,1.56-10.24,2.46-4.07,1.08-8.47,2.3-12.83,4.01-4.17,1.64-8.4,3.35-12.23,5.61-4.02,2.37-7.97,4.8-10.94,7.9-3.38,3.52-6.15,7.61-8.71,11.76-2.55,4.14-4.86,8.47-6.98,12.85Z"/>
    </clipPath>
  </defs>
  <path class="st3" d="M142.22,446.51c-.1,4.21-.1,8.42-.2,12.63-.1,4.21-.32,8.42-.42,12.63-.1,4.21.36,8.43.26,12.64-.1,4.21-.34,8.42-.44,12.63-.1,4.21-.33,8.42-.44,12.63-.1,4.21-.56,8.41-.67,12.62-.1,4.21.35,8.43.25,12.64-.1,4.21-.62,8.41-.72,12.62-.1,4.21-.28,8.42-.39,12.63-.1,4.21-.29,8.42-.4,12.63-.1,4.21.36,8.43.26,12.64-.1,4.21-.65,8.41-.76,12.62-.1,4.21-.07,8.42-.17,12.63-.1,4.21-.31,8.42-.41,12.63-.1,4.21-.56,8.41-.66,12.62-.1,4.21.1,8.43,0,12.64-.1,4.21-.24,8.42-.34,12.63-.1,4.21-.45,8.41-.56,12.62-.1,4.21.73,8.44.63,12.65-.1,4.21-.54,8.41-.64,12.62-.1,4.21-.07,8.42-.18,12.63-.1,4.21-.97,8.4-1.08,12.61-.1,4.21.03,8.42-.08,12.63-.1,4.21-.33,8.42-.44,12.63-.1,4.21.02,8.55-.08,12.76,4.1.77,8.38,1.13,12.49,1.7s8.23,1.24,12.37,1.61c4.15.37,8.32.24,12.47.4s8.3.96,12.46.92c4.16-.04,8.31-.58,12.46-.83,4.15-.24,8.31-.35,12.45-.8,4.13-.45,8.3-.72,12.42-1.37,4.1-.65,8.15-1.71,12.23-2.55,3.58-.74,7.6-2.14,9.71-7.72,1.57-4.15,1.81-9.66,1.85-14.78.03-4.15.02-8.29.06-12.44.03-4.15-.54-8.3-.5-12.44.03-4.15.74-8.29.78-12.43s-.09-8.29-.06-12.44c.03-4.15-.22-8.29-.19-12.44s-.08-8.29-.05-12.44c.03-4.15.24-8.29.27-12.44s.21-8.29.25-12.44c.03-4.15.47-8.29.5-12.44.03-4.15-.06-8.29-.02-12.44.03-4.15.17-8.29.2-12.44s.1-8.29.13-12.44c.03-4.15-.47-8.3-.43-12.44.03-4.15.73-8.29.76-12.43.03-4.15.07-8.29.11-12.44.03-4.15-.86-8.3-.82-12.45.03-4.15.94-8.29.98-12.43.03-4.15.05-8.29.09-12.44.03-4.15-.82-8.3-.78-12.45.03-3.87.54-7.91.7-12.01.15-4,.48-8.03.51-12.01.04-4.11.29-8.19-.04-12.04-.36-4.22-.93-8.33-2.04-11.92-1.26-4.06-3.27-7.75-5.94-10.56-2.59-2.72-6.25-4.48-10.61-5.57s-8.58-1.66-12.94-1.75c-4.31-.08-8.69.14-13.07.65s-8.54,1.66-12.86,2.39c-4.3.72-8.69.92-12.99,1.53-4.35.62-8.65,1.04-12.97,1.2-4.37.17-8.73.57-13.04-.09-1.49-.23-3.24-2.38-2.04-3.61"/>
  <g>
    <path class="st4" d="M119.62,744.84c.09,4.33-.17,8.67-.08,13,.09,4.33.15,8.66.24,12.99.09,4.33.76,8.65.85,12.98.09,4.33.27,8.66.35,12.99.09,4.33.37,8.66.45,12.99.09,4.33-.13,8.67-.04,13,.07,3.72.09,7.56.17,11.45.08,3.79.36,7.62.53,11.44.17,3.84.32,7.67.67,11.43.29,3.03.66,6.16,1.07,9.28.41,3.13.69,6.27,1.56,9.2,2.03,6.79,2.25,6.14,9.27,7.45,4.77.89,9.47,2.15,14.24,3,4.01.71,8.12.87,12.14,1.55,4.02.68,7.95,1.86,11.98,2.51,4.02.65,8.1.98,12.13,1.6,4.03.62,8.05,1.26,12.09,1.84s8.02,1.49,12.06,2.04c4.04.55,8.06,1.28,12.1,1.8,4.04.52,8.16.43,12.21.92,4.72.57,9.47.83,14.2,1.36,4.73.53,9.41,1.4,14.14,1.88s9.46.97,14.19,1.41c4.4.41,11.39,3.06,14.83-.76,2.53-2.8,2.13-7.75.34-10.86-2.96-5.14-9.56-7.66-14.36-10.72-3.94-2.51-7.61-5.44-11.54-7.95-3.94-2.51-7.83-5.09-11.76-7.6-3.94-2.51-7.82-5.1-11.76-7.61-3.27-2.08-7.1-3.7-9.98-6.33-2.96-2.7-5.46-5.95-6.64-9.77-1-3.23-1.19-6.76-1.19-10.14,0-3.98.59-7.97.7-11.98.11-3.98.69-7.96.88-11.96.19-3.99-.41-8.02-.19-12.01s1-7.95,1.23-11.94c.22-3.99.18-8,.36-11.99.19-4,.26-8,.37-11.98.11-4.01.58-8.23.59-12.21-3.96-.95-8.44-1.51-12.78-2.04-4.14-.5-8.39-.85-12.66-1.11s-8.53,0-12.71-.14-8.63-.52-12.68-.69c-4.48-.19-8.97-.25-13.45-.44s-8.95-.52-13.43-.71c-4.48-.19-8.97-.22-13.45-.41s-8.97-.27-13.45-.46c-.9-.04-2.15-.78-2.87-.25-1.03.76-.95,2.64-.92,3.92Z"/>
    <g class="st2">
      <path class="st5" d="M126.39,887.15c4.37.56,8.78.85,13.13,1.53s8.69,1.46,13.03,2.25,8.68,1.56,12.99,2.44c4.32.89,8.53,2.24,12.83,3.2,4.3.96,8.6,1.9,12.89,2.91s8.76,1.29,13.04,2.34,8.38,2.83,12.66,3.89c3.82.95,7.68,1.7,11.5,2.65,3.81.95,7.63,1.9,11.45,2.84,3.82.94,7.75,1.39,11.58,2.31,3.82.91,7.53,2.32,11.37,3.19,4.5,1.03,8.84,2.32,13.19,3.42,4.43,1.12,8.95,1.58,13.45,2.15,4.41.55,8.84.68,13.52.1,3.29-.4,6.81-1.04,8.81-3.69,3.27-4.33,4.11-8.07,2.53-11.13-1.5-2.9-5.09-5.18-9.46-7.16-3.26-1.47-7.23-2.29-11.39-3.35-3.71-.94-7.64-1.68-11.63-2.35s-7.94-1.24-11.77-1.69c-4.26-.5-8.3-.8-11.84-1.11-5.62-.49-9.89-1.39-11.77-1.66-4.09-.58-8.23-.8-12.32-1.41-4.09-.6-8.14-1.39-12.23-2.02-4.08-.63-8.17-1.2-12.25-1.85s-8.08-1.8-12.15-2.47c-4.08-.67-8.17-1.21-12.24-1.9-4.07-.69-8.23-.85-12.3-1.57-4.07-.71-8.15-1.33-12.22-2.07-4.06-.73-8.11-1.56-12.17-2.32-4.06-.76-7.98-2.25-12.04-3.02s-8.13-1.45-12.18-2.25c-4.05-.8-9.49-.96-11.53,2.63-2.63,4.65-.91,8.5,2.28,10.87,3.25,2.42,8.17,3.86,11.25,4.25Z"/>
    </g>
  </g>
  <path class="st8" d="M203.01,415.61c3.7-.88,7.45-1.98,11.34-2.42,3.83-.42,7.74-.13,11.6-.21,3.99-.08,8-.6,12.01-.45,4,.15,7.98.77,11.97,1.02,4.01.25,8.03.06,12.01.27,5.65.3,9.73,1.6,12.86,2.73,5.18,1.87,7.67,4.56,8.51,9.05.66,3.5.79,7.91.53,13.23-.19,3.88-.5,8.25-.48,13.19.02,4.33-.44,8.66-.43,13,0,4.33-.07,8.66-.07,12.99,0,4.33.05,8.66.04,12.99-.01,4.33-.11,8.66-.13,12.99-.02,4.33-.23,8.66-.25,12.99s0,8.66-.04,12.99c-.04,4.33.41,8.67.36,13s-.53,8.66-.58,12.99c-.06,4.33.52,8.67.45,13-.07,4.33-.55,8.65-.62,12.99-.1,4.09-.14,8.19-.25,12.28s-.34,8.18-.45,12.27c-.1,4.09.27,8.2.17,12.29-.11,4.09-.23,8.19-.34,12.28-.11,4.09-.08,8.19-.19,12.28-.11,4.09-.35,8.18-.46,12.27-.12,4.09-.89,8.17-1.01,12.26-.12,4.09-.38,8.18-.5,12.27-.13,4.09-.3,8.18-.43,12.27-.14,4.09-.06,8.19-.2,12.28-.14,4.09.26,8.2.11,12.29-.15,4.09-.7,8.17-.86,12.26-.16,4.09-.22,8.19-.39,12.28-.17,4.09-.79,8.16-.97,12.25-.18,4.09.26,8.21.07,12.3-.14,2.89.19,7.26.41,12.5.16,3.81-.27,8.09-.11,12.54.14,4.07.41,8.3.43,12.52s-.11,8.5-.34,12.52c-.25,4.52-.21,8.84-.93,12.51-1.01,5.12-2.59,9.4-4.92,11.57-2.1,1.96-6.3,2.35-11.31,2.53-3.42.13-7.33-.14-11.57-.59-3.66-.39-7.59-.63-11.55-1.3s-7.57-1.71-11.38-2.49-7.87-.99-11.52-1.81c-4.08-.91-7.86-2.1-11.28-2.87-4.82-1.08-8.72-2.34-11.32-2.71-2.32-.34-4.66-.71-6-2.63-.93-1.33-1.51-2.84-1.58-4.46-.17-4.19-.37-8.39-.54-12.58-.17-4.19-.49-8.38-.66-12.58-.17-4.19-.41-8.39-.58-12.58-.17-4.19-.08-8.4-.25-12.59-.17-4.19-.32-8.39-.49-12.58-.17-4.19.14-8.41-.03-12.6-.17-4.19-.81-8.37-.98-12.56-.17-4.19-.08-8.4-.25-12.59-.17-4.19-.12-8.4-.29-12.59-.17-4.19-1.17-8.35-1.34-12.55-.17-4.19.42-8.42.25-12.61-.17-4.19-1.17-8.35-1.35-12.55-.17-4.19.15-8.41-.02-12.6-.17-4.19-.03-8.4-.2-12.6s-.93-8.36-1.1-12.56c-.17-4.19-.44-8.38-.62-12.58-.17-4.19.27-8.41.1-12.61-.17-4.19-1.02-8.36-1.19-12.56-.17-4.19.47-8.42.29-12.62-.17-4.19-.56-8.38-.73-12.57-.17-4.02-.71-8.07-.98-12.16-.26-4.03-.35-8.1-.67-12.19-.32-4.04-1-8.07-1.34-12.14-.34-4.04-.17-8.14-.5-12.21s-.62-8.11-.91-12.17c-.3-4.06-.8-8.11-1.03-12.16-.23-4.08-.37-8.14-.5-12.19-.13-4.09-.49-8.16-.48-12.2s.63-8.15.82-12.18c.19-4.1-.23-8.21.18-12.22.49-4.83,1.6-9.21,3.3-12.94,1.92-4.2,4.96-7.54,8.11-10.52,3.18-3,6.97-5.24,11.07-7.18,3.89-1.84,8.1-3.12,12.53-4.17Z"/>
  <g>
    <path class="st7" d="M174.6,765.99c.49,4.3,1.28,8.57,1.77,12.88s.95,8.61,1.44,12.91c.49,4.3.93,8.61,1.42,12.92.49,4.3.75,8.63,1.24,12.94.49,4.3,1.11,8.59,1.6,12.9.49,4.3.49,8.66.98,12.97.42,3.69,1.53,7.43,1.98,11.3.43,3.76.84,7.57,1.37,11.36.53,3.81.42,7.72,1.12,11.42.57,2.99,1.4,6.05,2.1,9.12s1.99,5.94,3.13,8.77c2.66,6.57,2.4,5.85,9.51,6.5,4.83.44,9.59,1.69,14.42,2.08,4.06.33,8.14.56,12.2.86s8.16.23,12.22.5c4.07.27,8.12.81,12.19,1.04s8.15.32,12.22.53,8.14.51,12.21.68c4.07.17,8.17-.25,12.24-.11,4.07.14,8.13.61,12.21.72,4.75.13,9.5.56,14.25.64s9.51-.17,14.27-.13c4.75.04,9.51.5,14.26.5,4.42,0,11.45,1.37,14.53-2.76,2.25-3.03,1.18-7.52-.89-10.45-3.43-4.84-9.76-7.2-14.82-9.79-4.15-2.13-8.37-4.13-12.53-6.27-4.15-2.13-8.33-4.22-12.48-6.35-4.15-2.13-8.29-4.29-12.45-6.42-3.45-1.77-6.84-3.96-9.95-6.3-3.2-2.42-5.96-5.15-7.5-8.84-1.3-3.12-1.37-6.55-1.69-9.92-.37-3.96-1.19-7.9-1.45-11.91-.26-3.98.15-8-.04-12s-.83-7.96-.98-11.96c-.15-3.99-.34-7.99-.49-11.98-.15-4,.18-8.01,0-12-.19-4-.37-8-.63-11.98s-.94-8.02-1.31-11.99c-4.04-.57-8.36-.71-12.73-.83-4.17-.11-8.43-.17-12.7-.02s-8.51.52-12.68.78c-4.36.26-8.63.48-12.68.69-4.48.23-8.96.35-13.44.58-4.48.23-8.97.17-13.45.4-4.48.23-8.95.61-13.43.84-4.48.23-8.97.29-13.44.52-.9.05-1.6.75-2.28,1.35-.96.85-1.01,2.04-.87,3.31Z"/>
    <g class="st13">
      <path class="st5" d="M194.41,906.66c4.41.15,8.83.02,13.23.3,4.4.28,8.78.87,13.17,1.26,4.39.39,8.72,1.35,13.1,1.83,4.38.48,8.8.6,13.17,1.15,4.37.55,8.79.77,13.16,1.38,4.37.61,8.67,1.68,13.03,2.32s8.77,1,13.12,1.66c3.89.59,7.77,1.18,11.66,1.77,3.89.59,7.74,1.43,11.63,2.01,3.89.58,7.72,1.55,11.62,2.1s7.81.97,11.71,1.48c4.57.6,9.13.76,13.56,1.44,4.52.7,8.96,1.62,13.49,1.76,4.44.14,8.96-.08,13.57-1.09,3.24-.71,6.58-2.07,8.33-4.9,2.85-4.61,3.39-8.44,1.53-11.34-1.76-2.75-5.77-4.15-10.3-5.71-3.38-1.16-7.19-2.41-11.43-3.07-3.78-.59-7.79-1.03-11.82-1.32-4.01-.29-8.04-.38-11.89-.47-4.29-.1-8.35-.06-11.9-.04-5.64.03-9.97-.23-11.87-.32-4.13-.2-8.27-.02-12.39-.24s-8.27-.15-12.39-.39c-4.12-.24-8.19-1.36-12.31-1.63s-8.29.2-12.41-.08c-4.12-.29-8.22-.9-12.34-1.21s-8.21-.9-12.33-1.22c-4.12-.33-8.27-.27-12.38-.62-4.11-.35-8.21-.96-12.32-1.33-4.11-.37-8.28-.22-12.39-.62-4.11-.39-8.19-1.1-12.3-1.52-4.11-.42-9.38-.42-11.07,3.34-2.19,4.87-.09,8.24,3.31,10.3,3.46,2.1,8.36,2.91,11.46,3.01Z"/>
    </g>
  </g>
  <path class="st19" d="M285.74,291.95c2.26-2.95,4.52-5.94,7-8.71,2.48-2.77,5.07-5.48,7.74-8.06,2.68-2.58,5.8-4.68,8.66-7.06s5.47-5.1,8.51-7.25c2.81-2,6-4.01,9.41-4.45,1-.13,2.23.12,3.09.66.98.63,1.19,2,1.53,3.11,1.17,3.84,1.33,7.7,1.2,11.66-.13,3.9-.16,7.9-1.05,11.8-.88,3.86-2.04,7.7-3.17,11.45-.89,2.99-1.78,6.16-3.63,8.66-2.08,2.82-5.44,4.01-8.73,5.24-3.18,1.19-6.56,2.09-9.89,2.66"/>
  <path class="st17" d="M388.71,354.41c-6.16-1.35-6.27-.85-12.42-2.19s-6.06-1.8-12.21-3.15-6.14-1.43-12.29-2.78c-6.16-1.35-6.26-.87-12.42-2.22-6.15-1.35-6.17-1.27-12.33-2.62s-6.05-1.84-12.21-3.19c-6.16-1.35-6.18-1.27-12.35-2.62-6.16-1.35-6.25-.95-12.41-2.3-3.49-.76-5.25-4.9-3.92-8.22,2.25-5.61,2.15-5.65,4.4-11.26q2.24-5.6,4.51-11.2c2.25-5.61,2.55-5.49,4.79-11.09,2.25-5.61,2.3-5.59,4.54-11.2s1.48-5.92,3.73-11.52c2.25-5.61,3.01-5.3,5.26-10.91,2.25-5.61,1.98-5.72,4.22-11.33,2.25-5.61,2.37-5.56,4.62-11.16,2.25-5.61,1.72-5.82,3.97-11.44,2.25-5.62,2.86-5.37,5.11-10.99,2.25-5.62,2.12-5.67,4.37-11.28,1.05-2.62,3.64-4.15,6.4-3.55,6.16,1.35,6.26.86,12.42,2.21,6.16,1.35,6.12,1.51,12.27,2.86,6.16,1.35,5.99,2.09,12.15,3.43s6.33.56,12.49,1.91c6.15,1.35,6.13,1.46,12.28,2.81,6.16,1.35,6.16,1.32,12.32,2.67,6.16,1.35,6.07,1.78,12.23,3.13s6.19,1.22,12.36,2.57c3.49.76,5.58,4.51,4.25,7.83-2.25,5.61-2.65,5.45-4.89,11.06s-1.76,5.8-4.01,11.4q-2.25,5.61-4.49,11.21c-2.25,5.61-2.61,5.46-4.86,11.07-2.25,5.61-2.04,5.69-4.28,11.3-2.25,5.61-2.66,5.44-4.91,11.05-2.25,5.61-2.02,5.7-4.26,11.31-2.25,5.61-2.14,5.65-4.39,11.26-2.25,5.61-1.83,5.78-4.08,11.39-2.25,5.62-2.28,5.6-4.53,11.22-2.25,5.62-2.77,5.41-5.02,11.02-1.05,2.62-3.65,4.11-6.41,3.5Z"/>
  <path class="st5" d="M294.76,321.85c2.27-5.67,2.57-5.55,4.84-11.22,2.27-5.67,2.38-5.63,4.65-11.3,2.27-5.67,1.99-5.79,4.26-11.46,2.27-5.67,2.6-5.54,4.87-11.21,2.27-5.67,1.96-5.8,4.23-11.47s1.77-5.88,4.05-11.55,3.04-5.36,5.31-11.04c2.27-5.68,1.47-6,3.74-11.68,2.28-5.68,3.08-5.36,5.35-11.04,2.28-5.68,2.09-5.75,4.37-11.43.76-1.89,2.64-3.38,4.63-2.95,6.29,1.38,6.26,1.51,12.55,2.89,6.29,1.38,6.31,1.26,12.6,2.64,6.29,1.38,6.15,1.99,12.44,3.37,6.29,1.38,6.27,1.47,12.56,2.85,6.29,1.38,6.47.55,12.76,1.93,6.29,1.38,6.17,1.96,12.46,3.34s6.31,1.28,12.61,2.66c2.51.55,3.95,3.2,3,5.59-2.27,5.67-2.13,5.72-4.4,11.39-2.27,5.67-2.11,5.73-4.39,11.4s-2.48,5.59-4.75,11.26c-2.27,5.67-2.7,5.5-4.97,11.18-2.27,5.67-1.72,5.89-4,11.57-2.27,5.67-2.82,5.45-5.1,11.13-2.27,5.67-2.07,5.75-4.34,11.42-2.27,5.68-2.05,5.77-4.32,11.44-2.28,5.68-2.37,5.64-4.64,11.32-2.28,5.68-2.05,5.77-4.32,11.45-.76,1.89-3.07,3.16-5.06,2.72-6.29-1.38-6.28-1.4-12.57-2.78-6.29-1.38-6.22-1.71-12.5-3.09s-6.22-1.7-12.51-3.08c-6.29-1.38-6.33-1.18-12.63-2.56-6.29-1.38-6.41-.84-12.7-2.22-6.29-1.38-6.25-1.59-12.54-2.96-6.29-1.38-6.21-1.78-12.5-3.16-2.51-.55-3.99-2.98-3.03-5.37Z"/>
  <path class="st6" d="M321.51,281.57c3.83.9,7.79,1.22,11.58,2.3,3.79,1.08,7.4,2.69,11.12,3.95,2.37.8,3.39-2.94,1.03-3.74-3.72-1.26-7.33-2.87-11.12-3.95-3.79-1.08-7.75-1.39-11.58-2.3-2.43-.57-3.47,3.17-1.03,3.74h0Z"/>
  <path class="st6" d="M319.33,290.71c3.78,1.24,7.62,2.3,11.37,3.6,3.52,1.22,6.81,2.99,10.34,4.18,2.37.8,3.39-2.95,1.03-3.74-3.53-1.19-6.82-2.97-10.34-4.18-3.76-1.3-7.6-2.36-11.37-3.6-2.38-.78-3.4,2.97-1.03,3.74h0Z"/>
  <path class="st6" d="M311.45,298.09c9.27,2.78,18.57,5.47,28.02,7.6,2.43.55,3.47-3.19,1.03-3.74-9.45-2.13-18.75-4.82-28.02-7.6-2.4-.72-3.42,3.03-1.03,3.74h0Z"/>
  <path class="st14" d="M409.85,256.89c0,3.88-.3,7.61-1.43,11.11-1.18,3.63-2.66,7.18-4.85,10.2-2.22,3.05-5.2,5.49-8.25,7.71-3.02,2.2-6.35,3.98-9.98,5.15-3.5,1.14-7.23,1.63-11.1,1.63s-7.67-.31-11.16-1.45c-3.63-1.18-6.66-3.47-9.68-5.67s-6.1-4.46-8.31-7.51c-2.2-3.02-4.18-6.34-5.36-9.97-1.14-3.5-1.08-7.34-1.08-11.22s.21-7.63,1.34-11.13c1.18-3.63,3.19-6.82,5.39-9.84,2.22-3.05,4.43-6.25,7.47-8.47,3.02-2.2,6.62-3.69,10.24-4.87s7.27-1.91,11.15-1.91,7.59.96,11.09,2.09,6.95,2.95,9.97,5.14c3.05,2.22,5.76,4.84,7.98,7.89,2.2,3.02,4.41,6.22,5.58,9.85,1.14,3.5,1,7.37,1,11.25Z"/>
  <path class="st21" d="M361.54,262.54c-3.03-1.04-4.59-4.08-5.39-7.18-1.4-5.46-1.53-11.24-.18-16.72.43-1.74,1.24-3.38,2.86-4.15,1.43-.69,3.29-.77,4.55.2,1.26.97,1.74,2.72,2.44,4.15,2.6,5.32,3.58,11.57,3.22,17.48,2.85-3.17,6.69-6.23,10.62-7.86,3.94-1.63,8.33-2.18,12.58-1.95,1.72.09,3.42.65,4.4,2.07.78,1.13.82,2.46.43,3.78-1.42,4.8-6.51,7.1-11.3,8.56-3.59,1.1-7.13,2.56-10.85,2.96s-7.57.59-11.31.29"/>
  <path class="st19" d="M274.31,314.32c.17-4,1.21-7.88,2.72-11.25,1.59-3.54,3.98-6.75,6.89-9.25,2.8-2.41,6.35-4.11,10.23-5.22,5.49-1.58,11.07-2.89,16.71-3.85,3.01-.51,6.3-1.12,9.2-.18,2.9.94,5.36,4.01,5.12,7.04-.27,3.42-3.64,5.9-6.88,7.01s-6.63,1.83-9,4.31c-2.35,2.46-2.84,5.88-3.81,9.15-.97,3.27-2.5,6.52-4.5,9.28s-4.87,4.85-7.67,6.79c-5.47,3.78-10.18,2.92-13.53-.25-3.26-3.09-5.68-8.33-5.46-13.59Z"/>
  <path class="st12" d="M192.89,89.69c-3.4-3.01-6.19-6.63-8.53-10.52-2.34-3.89-3.45-8.43-1.81-12.66,1.23-3.17,3.43-5.38,6.39-7.08s5.93-3.17,9.05-4.07c3.56-1.03,7.22-2.24,10.99-3.32s7.48-1.63,11.22-2.46,7.56-1.38,11.32-1.72c3.87-.35,7.66-.31,11.4.17,3.87.49,7.71,1.1,11.5,2.02,3.79.92,7.5,2.09,11.17,3.43s7.45,2.45,10.94,4.19c3.49,1.74,6.83,3.82,10.11,5.95,3,1.95,5.58,4.52,8.19,6.98,2.64,2.47,4.91,5.12,6.61,8.3,1.48,2.76,2.46,5.63,3.1,8.7.64,3.05,1.48,6.11,1.62,9.22.15,3.46-.58,6.95-1.16,10.38-.58,3.47-1.58,6.66-3.5,9.61-2.11,3.26-4.72,6.04-8.11,7.93s-7.14,2.95-10.91,3.56c-4.64.75-9.1.65-13.5.18s-8.82-1.65-13.15-3.03c-4.28-1.36-8.77-2.31-12.93-4.19-4.11-1.86-8.08-4.12-12.14-6.13-4.09-2.02-8.27-3.76-12.37-5.57"/>
  <path class="st12" d="M264.52,105.81c.32-2.5,1.31-4.92,1.77-7.44.67-3.65,1.22-7.35,1.65-11.03.43-3.7,1.05-7.46.74-11.17-.3-3.68-1.75-7.3-3.22-10.69-1.49-3.43-3.31-6.8-6.18-9.21-2.75-2.31-6.16-3.65-9.6-4.69s-7.01-1.26-10.54-1.58c-4-.36-8.39-.46-13.05-.3-4.21.14-8.57.6-13,1.22-4.29.61-8.76.73-12.98,1.85-4.28,1.13-8.45,2.68-12.37,4.4-4.12,1.81-8.11,3.82-11.51,6.34-3.6,2.67-6.23,6.24-8.65,9.79-2.16,3.17-3.93,6.52-5.54,10.01-1.61,3.48-3.48,6.87-4.52,10.57-1.04,3.69-1.85,7.49-2.3,11.3-.45,3.81-.56,7.69-.41,11.52s1.24,7.56,2.02,11.31c.91,4.39,1.73,8.84,3.47,13,1.73,4.16,4.25,7.91,6.73,11.65,2.05,3.09,4.42,5.83,6.87,8.57,2.45,2.75,4.4,5.94,6.81,8.72,2.4,2.77,4.98,5.39,6.92,8.57,1.13,1.85,2.09,3.92,3.73,5.34,1.83,1.59,4.4,1.91,6.75,2.52,3.84.98,8.04,1.86,12.37,2.56,4.16.67,8.36,1.41,12.54,1.33,4.32-.08,8.57-.49,12.47-1.89s7.23-3.88,10.26-7.14c3.36-3.62,4.94-9.91,6.89-14.38,1.72-3.94,3.5-7.85,4.71-11.97,1.21-4.12,2.49-8.25,3.48-12.41.89-4.06,1.49-8.14,1.99-12.15.51-4.08.53-8.19.91-12.26.38-4.06.29-8.18.81-12.27Z"/>
  <g>
    <path class="st19" d="M195.24,202.02c-.25-1.26-.03-2.59-.11-3.86-.09-1.48-.29-6.3.49-11.77.54-3.81,1.97-7.83,2.92-11.44,1.44-5.5,3.08-10.09,5.42-9.99,3.61.16,7.22.51,10.82.9,3.59.39,7.09,1.43,10.66,2.05,3.56.61,7.08,1.35,10.6,2.18,4.7,1.12,7.34,3.71,8.27,7.6.84,3.51.21,7.77-.35,11.93-.57,4.26-1.37,8.48-1.73,11.81-.4,3.73-.73,7.23-2.24,9.97-1.51,2.73-4.1,4.88-8,6.23-4.08,1.41-8.55,1.39-12.86,1.25-5.63-.19-11.7-.68-16.26-3.98-4.09-2.96-6.61-7.86-7.62-12.87Z"/>
    <g class="st0">
      <path class="st20" d="M205.48,176.08c2.43,3.82,5.18,7.66,7.74,11.67,2.51,3.93,4.81,8.11,7.71,11.71s6.37,7.04,10.01,9.86c2.2,1.7,4.87,3.1,7.64,3.33,4.2.35,7.92-2.77,9.83-6.53,1.92-3.75,2.53-8.12,1.54-12.22s-3.09-7.87-5.02-11.62c-1.74-3.39-3.28-7-5.69-9.95-2.41-2.95-5.72-5.61-9.41-6.57"/>
    </g>
  </g>
  <path class="st19" d="M188.84,166.1c-2.96-3.31-5.55-6.57-7.13-10.26s-2.42-7.73-2.68-12.25c-.26-4.55.16-9.07-.23-13.49-.4-4.48-.82-8.91-.97-13.4-.14-4.41-.35-8.85.11-13.42.42-4.06.74-8.18,1.8-12.06,1.09-3.98,3.02-7.62,4.89-11.15s4.18-6.95,7.04-9.83c2.8-2.82,6-5.23,9.81-7.06,3.08-1.48,6.19-3.02,9.5-3.77,3.31-.75,6.79-.8,10.14-1.28,4.49-.64,9.13-.77,13.8-1.03,4.6-.25,9.19-.14,13.8.17s9.33.13,13.81,1.17c4.51,1.04,8.79,2.9,12.98,4.87,4.21,1.98,7.34,4.84,10.09,8.01,2.84,3.29,5.23,6.87,6.84,10.98,1.57,4,2.65,8.26,3.38,12.6.73,4.35.99,8.76,1.2,13,.23,4.63.55,9.27.43,13.9-.12,4.63-.6,9.25-1.02,13.87-.43,4.62-.97,9.22-1.66,13.8-.69,4.53-1.59,9.05-2.63,13.45s-1.87,9.2-3.81,13.21c-2.01,4.15-5.31,7.38-8.75,10.49-3.15,2.86-6.85,5.17-11.63,6.79-3.3,1.12-6.62,2.09-10.08,2.39s-6.89-.16-10.36-.54-6.96-.54-10.3-1.46-6.53-2.37-9.74-3.7-6.41-2.66-9.51-4.25-6.13-3.29-9.14-5.01c-3.03-1.72-6.24-3.21-9.13-5.17s-5.7-4.14-8.19-6.59c-.97-.95-1.78-2.03-2.64-2.98Z"/>
  <path class="st8" d="M298.24,154.34c1.52-1.15,2.07-2.72,1.23-4.87-.62-1.57-2.11-5-3.84-5.55-1.83-.58-1.76,2.51-1.95,3.73-.4,2.55-.45,5.14-.54,7.72,0,.16-.19.36-.13.51.46,1.25,4.59-1.05,5.24-1.54Z"/>
  <path class="st22" d="M232.31,162.21c-2.02-3.39-2.57-6.66-1.79-9.71.9-3.55,3.21-6.2,6.49-7.25,2.84-.9,6.32-.89,9.88,1.6,4.25,2.97,5.81,7.9,4.5,13.18-1.17,4.69-6.06,7.52-10.9,7.58-1.19.01-2.47.1-3.6-.31-2.2-.8-3.39-3.08-4.59-5.09Z"/>
  <path class="st12" d="M206.1,168.49c-.18,5.71-1.56,14.21-9.27,12.94-6.88-1.14-7.67-8.4-10.8-13.3-1.94-3.02-4.79-5.32-7.29-7.9-2.49-2.57-5.19-5.08-7.04-8.2-2.07-3.5-3.15-7.44-4.33-11.22-1.19-3.83-2.33-7.7-2.68-11.69s.13-7.98.55-11.99.94-7.94,2.03-11.81c1.08-3.84,2.79-7.48,4.46-11.12,1.67-3.65,3.05-7.48,5.23-10.82s4.69-6.61,7.35-9.55c2.72-3,5.73-5.76,8.84-8.19,3.01-2.35,6.45-4.08,9.86-5.74s6.91-3.2,10.59-4.22c3.64-1.01,7.49-1.15,11.28-1.6s7.53-1.28,11.33-1.25,7.59.89,11.32,1.35c3.83.47,7.65.74,11.27,1.6,6.17,1.45,11.78,1.19,17.76,3.87,3.01,1.35,5.68,3.3,8.35,5.23,2.68,1.93,5.06,4.11,7.27,6.57,2.59,2.89,5.41,5.68,7.51,8.95,2.15,3.34,3.87,6.9,5.08,10.53,1.24,3.73,1.76,7.58,1.57,11.51-.19,3.7-.78,7.58-2.64,11.36-1.25,2.55-3.44,5.06-6.25,5.5-.84-4.23-2-8.45-3.74-12.4-1.74-3.95-4-7.68-6.56-11.16.5.68-4.53,4.9-9.83,8.79-4.89,3.59-9.83,7.23-10.76,7.81-4.14,2.58-8.69,4.49-13.11,6.56-4.42,2.07-9.06,3.54-13.69,5.08s-9.13,3.61-13.91,4.58c-3.23.66-11.97.32-13.74,2.64-1.25,1.64-2.46,8.21-3.35,10.71-1.69,4.8-1.83,10.14-2.5,15.17-.52,3.93-.04,7.57-.17,11.4Z"/>
  <path class="st19" d="M218.18,132.3c-1.66-4.19-5.02-8.01-9.22-10.55s-9.11-3.68-13.63-3.06c-6.14.83-12.01,4.05-15.2,8.82-3.19,4.77-3.95,10.86-3.12,16.39.7,4.68,2.59,9.37,5.63,13.22,2.9,3.68,7.05,6.47,11.48,8.61,4.54,2.19,9.62,3.02,14.76,3.12s10.35-.28,14.98-2.29"/>
  <path class="st20" d="M204.13,138.26c-6.12-1.74-12.33-3.09-18.64-3.91-1.04-.14-1.94.99-1.94,1.94,0,1.16.9,1.81,1.94,1.94,5.96.77,11.84,2.12,17.61,3.77,2.41.69,3.44-3.06,1.03-3.74h0Z"/>
  <path class="st8" d="M276.77,137.05c-.19,2.62,1.46,5.27,4.04,5.46,2.58.18,4.49-2.22,4.68-4.84.19-2.62-1.38-5.06-3.96-5.25-2.58-.18-4.57,2.01-4.76,4.62Z"/>
  <path class="st8" d="M275.63,119.35c1.45-1.7,3.6-2.93,5.66-3.13,2.19-.21,4.47.55,6.13,1.92.81.67,1.95.79,2.75,0,.69-.69.81-2.08,0-2.75-2.45-2.02-5.65-3.34-8.88-3.06s-6.32,1.81-8.41,4.27c-.68.8-.78,1.96,0,2.75.7.7,2.06.8,2.75,0h0Z"/>
  <path class="st9" d="M260.91,161.8c2.33,2.23,5.21,3.82,8.35,4.57,3.57.85,7.3.85,10.94.7,2.49-.1,2.5-3.99,0-3.88-5.84.24-12.06.15-16.54-4.13-1.81-1.73-4.56,1.02-2.75,2.75h0Z"/>
  <path class="st19" d="M389.37,332.88c-1.82,3.42-3.97,6.66-5.91,10.02-1.94,3.36-3.77,6.78-5.83,10.07-2.05,3.29-4.3,6.45-6.47,9.67-.45.67-.92,1.06-1.68,1.32-.94.32-1.91.56-2.8.11-4.27-2.14-8.11-5.06-12.2-7.52-4.09-2.46-8.42-4.56-12.31-7.33s-7.55-5.85-11.23-8.9c-1.35-1.12-2.43-2.45-2.56-4.2-.08-1.11.31-2.01.77-3.03,1.62-3.58,3.61-8.05,5.86-12.35,2.28-4.37,4.42-8.72,4.91-12.66.77-6.16-3.05-11.52-4.44-17.55-1.12-4.88-.27-10.5,3.63-13.64,1.52-1.23,3.21-2.12,4.96-2.99,4.12-2.03,7.3-5.3,10.17-8.88,2.83-3.53,5-7.56,6.99-11.61,2-4.08,4.09-8.14,6.05-12.24,1.97-4.12,4.45-7.89,7.21-11.52,1.98-2.6,5.42-5.2,7.75-2.91,1.88,1.85,1.7,5.27,1.05,8.89-.64,3.53-1.47,7.19-2.23,9.18-1.9,5-4.61,9.69-6.16,14.81.63-2.07,5.87-3.19,7.69-3.23,2.93-.07,4.48,1.53,5.03,4.49.45,2.44.32,4.96-.66,7.24,1.09-3.93,6.39-5.68,9.73-3.34,3.34,2.34,3.94,7.17,1.86,10.68.92-3.54,6.45-4.12,9.13-1.63,2.81,2.6,3.39,6.77,2.85,11.29-.43,3.57-1.73,7.5-3.27,11.41-1.47,3.73-3.26,7.43-4.98,10.8-2.19,4.31-4.21,8.08-5.39,10.58-2.38,5.05-4.9,10.04-7.53,14.97Z"/>
  <path class="st7" d="M237.36,207.38c4.16.03,8.29.84,12.38,1.54,4.09.7,8.06,1.9,12,3.23,3.93,1.33,7.99,2.46,11.67,4.37,3.69,1.91,7.15,4.3,10.5,6.74,3.36,2.45,6.22,5.48,9.15,8.42,2.93,2.94,5.62,5.77,8.04,9.15-4.77,3.44-10.89,2.92-16.74,2.31-5.01-.52-10.21-.47-15.09-1.73s-9.76-3.14-14.07-5.84c-4.25-2.66-7.52-6.84-10.16-11.1-2.7-4.34-4.08-9.08-3.78-14.18"/>
  <path class="st11" d="M385.38,351.65c-1.43-3.66-3.41-7.1-5.73-10.24s-5.07-5.97-7.97-8.6c-2.91-2.64-6.09-4.98-9.3-7.12-3.83-2.56-7.72-3.38-11.96-4.95-5.5-2.03-10.15-5.14-16.07-6.05-.64-.1-1.28-.64-1.9-.44-1.1.35-1.95,1.43-2.49,2.44-.92,1.7-1.89,3.27-3.4,4.46-1.51,1.2-3.6,2.33-5.33,1.47-2.31-1.16-3.16-5.24-5.74-5.48-.66-.06-1.52.79-2.12.51-.51-.23-.95-.82-1.25-1.29-1.85-2.86-3.9-5.46-6.09-8-2.18-2.52-4.22-5.16-6.06-8.05-1.82-2.85-3.3-5.88-4.86-8.88-1.56-3-3.45-5.82-5.02-8.81-2.18-4.16-4.45-8.28-6.44-12.53-1.99-4.25-3.9-8.56-5.91-12.8-1.18-3.63-1.82-7.47-3.25-10.98-1.44-3.54-2.94-7.07-4.69-10.43-1.76-3.38-3.98-6.51-6.12-9.65-2.13-3.13-4.88-5.77-7.45-8.6-2.95-3.25-5.57-6.77-9-9.23-3.53-2.53-7.71-3.9-11.61-5.6s-7.97-3.02-12.17-3.92c-4.2-.9-8.4-1.48-12.71-1.56-4.28-.08-8.65-.48-12.9.23-4.22.71-8.44,1.91-12.49,3.39s-8.01,3.26-11.73,5.47c-3.66,2.18-6.75,5.27-9.99,8.16-2.83,2.52-5.63,5.04-8.01,7.95-2.38,2.91-4.58,5.99-6.54,9.22-1.95,3.21-4.02,6.42-5.57,9.87s-2.76,7.05-3.95,10.63c-1.19,3.59-2.33,7.22-3.18,10.88-.85,3.66-1.55,7.37-2.12,11.07-.57,3.7-.95,7.45-1.31,11.19-.36,3.73-.78,7.47-.98,11.22-.21,3.74-.32,7.5-.44,11.25-.11,3.75.19,7.51.11,11.25,0,.11-.07.22-.07.32-.09,4.09-.46,8.16-.58,12.22-.11,4.09,0,8.17-.13,12.24-.13,4.08-.1,8.16-.24,12.23-.14,4.08.08,8.17-.06,12.24-.14,4.08-.86,8.13-.99,12.2-.14,4.07.17,8.16.05,12.23-.12,4.07-.02,8.15-.12,12.23-.1,4.07-1.01,8.12-1.09,12.2-.07,4.07-.05,8.14-.09,12.23-.04,4.06.05,8.14.05,12.24.18,4.27.96,8.47,2.96,12.24,1.86,3.51,4.52,5.68,8.03,7.16,3.29,1.39,6.91,2.8,10.81,3.04,3.78.24,7.66-.71,11.26-.98,4.15-.31,8.32-.43,12.48-.67,4.16-.24,8.33-.04,12.49-.21s8.32-.19,12.48-.29c4.16-.1,8.32-.13,12.48-.16s8.32-.58,12.49-.55c4.16.03,8.32.53,12.48.64,4.16.1,8.34-.34,12.5-.16s8.29,1.01,12.44,1.25,8.34.04,12.49.35c4.38.33,8.83.52,12.68-1.59,4.38-2.4,6.57-6.8,7.48-12.01.88-5.08,1.11-10.59,1.27-14.79.11-2.89-.35-5.87-.37-8.78,1.58.48,3.33.59,4.96.9,1.28.24,2.55.43,3.86.56,4.28.42,8.29,1.17,12.06.73,4.18-.49,8.07-1.73,11.7-3.12,3.8-1.46,7.38-3.37,10.68-5.64s6.49-4.77,9.39-7.63,4.98-6.26,7.53-9.44c2.49-3.11,4.74-6.43,7.06-9.75,2.3-3.29,5.08-6.28,7.3-9.62,2.25-3.37,4.37-6.81,6.63-10.07,2.33-3.37,4.62-6.69,7.07-9.76,1.34-1.69,3.22-3.38,3.6-5.5.36-2.03-.54-4.25-1.28-6.16Z"/>
  <path class="st20" d="M351.45,272.3c-1.28,4.29-2.71,8.53-3.97,12.82-1.26,4.3-2.06,8.72-3.32,13.02-.7,2.4,3.05,3.43,3.74,1.03,1.25-4.3,2.05-8.72,3.32-13.02,1.26-4.29,2.69-8.53,3.97-12.82.71-2.4-3.03-3.43-3.74-1.03h0Z"/>
  <path class="st20" d="M373.63,259.87c-.91,2.53-1.29,5.21-2.2,7.74-.34.96.39,2.17,1.36,2.39,1.09.25,2.02-.33,2.39-1.36.91-2.53,1.29-5.21,2.2-7.74.34-.96-.39-2.17-1.36-2.39-1.09-.25-2.02.33-2.39,1.36h0Z"/>
  <path class="st20" d="M385,266.81c-.26.91-.61,1.78-.98,2.65l.2-.46c-.5,1.18-1.03,2.36-1.38,3.6-.28.98.34,2.16,1.36,2.39s2.09-.31,2.39-1.36c.26-.91.61-1.78.98-2.65l-.2.46c.5-1.18,1.03-2.36,1.38-3.6.28-.98-.34-2.16-1.36-2.39s-2.09.31-2.39,1.36h0Z"/>
  <path class="st8" d="M176.89,294.92c2.34,17.72,13.72,33.16,25.63,45.89,3.04,3.25,6.43,6.16,9.41,9.47,3.12,3.46,6.09,7.03,9.41,10.3,6.63,6.55,13.77,12.48,20.59,18.82,3.81,3.55,7.76,6.89,11.77,10.2,4.03,3.33,7.46,7.23,11.38,10.67,1.87,1.64,4.63-1.09,2.75-2.75-3.3-2.89-6.16-6.23-9.49-9.09-3.43-2.94-7-5.7-10.34-8.73-6.58-5.97-13.34-11.76-19.77-17.89-6.52-6.21-12.14-13.21-18.62-19.45-6.44-6.2-12.4-13.18-17.42-20.59-5.49-8.08-10.11-17.07-11.4-26.88-.32-2.44-4.21-2.47-3.88,0h0Z"/>
  <g>
    <path class="st7" d="M127.38,232.36c-.05.1-.29.11-.34.21-1.7,3.51-2.73,7.33-4.3,10.9-1.57,3.57-3.52,6.98-4.97,10.6-1.45,3.62-2.62,7.36-3.94,11.02-1.32,3.67-2.97,7.24-4.17,10.95-1.19,3.71-2,7.55-3.06,11.31-.27.96-.54,2.04-.25,3,.4,1.29,1.75,2.27,3.06,2.6,4.44,1.13,8.78-1.99,12.52-4.63,2.97-2.1,5.76-4.45,8.71-6.58,2.95-2.13,6.28-3.73,9.21-5.89,2.93-2.16,5.76-4.45,8.68-6.62,2.92-2.17,5.85-4.32,8.77-6.5,3.19-2.38,6.56-4.31,9.86-6.31s6.78-3.87,10.11-5.95c3.26-2.04,6.09-4.75,9.21-7.25,3.61-2.89,7.65-5.25,11.37-8.03,3.73-2.78,7.27-5.8,11.24-8.17,3.98-2.38,8.21-4.28,12.55-5.95,3.36-1.3,7.04-3.03,10.81-4.14s7.78-1.94,11.46-.89c3.75,1.06,7.21,3.17,11.11,3.15,1.59,0,3.31-.25,4.05-1.65.42-.79.97-1.7.98-2.6.1-7.57-2.68-9.59-9.58-10.47-5.28-.67-7.95-2.64-12.84-4.97-4.25-2.02-8.68-4.25-13.3-5.92s-9.49-2.56-14.11-3.55c-3.42-.73-6.92-1.07-10.41-1.4s-7.02-1.07-10.52-.86c-3.51.22-6.84,1.56-10.24,2.46-4.07,1.08-8.47,2.3-12.83,4.01-4.17,1.64-8.4,3.35-12.23,5.61-4.02,2.37-7.97,4.8-10.94,7.9-3.38,3.52-6.15,7.61-8.71,11.76-2.55,4.14-4.86,8.47-6.98,12.85Z"/>
    <g class="st1">
      <path class="st18" d="M117.5,212.67c1.45,4.12,3.04,8.2,4.45,12.34,1.25,3.66,2,7.47,3.35,11.11,2.81,7.59,6.33,14.82,9.51,22.24,3.26,7.63,5.84,15.55,9.12,23.18,3.36,7.82,7.11,15.47,10.75,23.16,1.07,2.26,4.42.29,3.35-1.96-3.53-7.44-7.14-14.85-10.42-22.4-3.35-7.72-5.95-15.74-9.25-23.47-3.15-7.39-6.69-14.57-9.45-22.14-1.33-3.64-2.06-7.46-3.34-11.11-1.4-4.01-2.91-7.97-4.32-11.98-.82-2.34-4.58-1.33-3.74,1.03h0Z"/>
      <path class="st18" d="M152.44,178.05c2.58,7.14,5.18,14.28,7.81,21.41,2.6,7.06,4.39,14.33,7.55,21.18,3.2,6.94,5.08,14.31,8.12,21.3,1.56,3.58,3.39,7.04,4.72,10.72,1.3,3.58,2.3,7.25,3.7,10.79,1.6,4.04,3.72,7.86,5.36,11.88,1.63,4.02,3.06,8.13,4.68,12.15.92,2.29,4.68,1.29,3.74-1.03-2.81-6.98-5.43-13.94-8.61-20.77-3.21-6.91-4.95-14.35-8.19-21.27s-5.12-14.28-8.15-21.28c-1.55-3.59-3.37-7.06-4.63-10.76-1.23-3.6-2.13-7.31-3.42-10.89-2.96-8.16-5.98-16.3-8.94-24.46-.84-2.33-4.6-1.33-3.74,1.03h0Z"/>
      <path class="st18" d="M200.24,175.08c5.8,16.58,11.06,33.35,16.09,50.17,2.36,7.89,5.01,15.76,6.91,23.78.92,3.89,1.3,7.89,2.25,11.78,1.01,4.15,2.64,8.12,3.63,12.27.58,2.43,4.32,1.4,3.74-1.03-.99-4.16-2.62-8.12-3.63-12.27-.94-3.89-1.33-7.89-2.25-11.78-1.9-8.02-4.55-15.89-6.91-23.78-5.03-16.83-10.29-33.6-16.09-50.17-.82-2.34-4.57-1.34-3.74,1.03h0Z"/>
      <path class="st18" d="M104.77,233.68c19.66-6.7,39.46-13.08,59.06-19.97,4.91-1.73,9.64-3.88,14.68-5.23,5.09-1.36,9.92-2.89,14.8-4.88,9.63-3.92,19.72-6.58,29.58-9.83,5.46-1.8,10.93-3.52,16.34-5.45,5.67-2.02,11.25-4.3,16.93-6.27,2.35-.81,1.34-4.57-1.03-3.74-4.91,1.7-9.71,3.72-14.61,5.44s-9.8,3.44-14.75,5.02c-9.9,3.15-19.87,6.11-29.66,9.6-4.92,1.75-9.59,3.98-14.65,5.33s-9.93,2.89-14.83,4.81c-9.66,3.79-19.69,6.7-29.5,10.06-11.13,3.8-22.26,7.57-33.39,11.36-2.35.8-1.34,4.55,1.03,3.74h0Z"/>
      <path class="st18" d="M90.72,280.17c3.18-1.3,6.28-2.78,9.43-4.16,3.5-1.53,7.12-2.71,10.71-4.02,7.06-2.56,13.93-5.74,20.85-8.65,6.69-2.81,13.53-5.19,20.31-7.74,6.91-2.61,13.75-5.38,20.61-8.12,6.72-2.69,13.36-5.39,19.92-8.45,6.84-3.19,13.88-6.01,20.87-8.85,3.39-1.38,6.74-2.73,10.26-3.75,3.33-.96,6.58-1.96,9.71-3.46,3.31-1.59,6.48-3.4,9.92-4.72s6.81-2.48,10.18-3.81c7.89-3.12,15.99-5.76,23.84-8.97,3.59-1.47,7-3.33,10.58-4.83,4.02-1.68,8.12-3.18,12.16-4.79,2.29-.92,1.29-4.67-1.03-3.74-6.73,2.69-13.41,5.32-19.97,8.39s-14.12,5.46-21.14,8.11-13.97,4.81-20.52,8c-3.15,1.53-6.17,3.32-9.48,4.49-3.34,1.18-6.82,1.91-10.12,3.18-13.8,5.29-27.03,11.9-40.76,17.32-7,2.76-13.91,5.75-20.95,8.39-6.65,2.49-13.4,4.78-20,7.4-7.9,3.14-15.62,6.73-23.52,9.85-3.88,1.53-7.88,2.75-11.75,4.33s-7.38,3.35-11.13,4.88c-2.28.93-1.28,4.69,1.03,3.74h0Z"/>
    </g>
  </g>
  <path class="st8" d="M309.36,331.04c-.43,11.4-1.52,22.76-2.68,34.11-.59,5.75-.65,11.42-1.73,17.12s-1.83,11.4-2.79,17.09c-.41,2.44,3.33,3.5,3.74,1.03.96-5.69,1.71-11.42,2.79-17.09,1.1-5.78,1.25-11.5,1.78-17.33,1.07-11.64,2.32-23.24,2.76-34.93.09-2.5-3.79-2.5-3.88,0h0Z"/>
  <path class="st8" d="M320.26,343.49c1.28,9.1,2.6,18.2,3.89,27.31.62,4.42,1.13,8.85,1.77,13.27.68,4.7,2.18,9.23,2.89,13.93.38,2.46,4.12,1.42,3.74-1.03-.7-4.56-2.16-8.96-2.84-13.53-.68-4.55-1.18-9.12-1.82-13.67-1.29-9.1-2.61-18.2-3.89-27.31-.35-2.46-4.09-1.42-3.74,1.03h0Z"/>
  <path class="st12" d="M150.94,230.5c4.99-.18,9.86-1.25,14.18-3.74,3.69-2.13,7.34-4.65,9.85-8.08,2.52-3.44,4.06-7.54,4.97-11.7,3.96.37,7.89-.6,11.29-2.67s6.1-5.13,8.36-8.27c3.6-4.98,6.18-11.27,4.93-17.28-.72-3.44-2.64-6.41-5.23-8.48-2.59-2.07-5.95-3.29-9.33-3.6-3.87-.35-7.95-.98-12.03-1.22-4.06-.24-8.04.36-11.92,1.32-6.11,1.51-9.7,4.69-13.75,9.17-3.39,3.75-8.12,4.72-12.4,7.83-4.46,3.25-8.61,7.16-11.13,12.06-.59,1.15-5.07,15.09-3.42,15.21-3.27-.24-6.57.35-9.79.98s-6.31,1.66-9.06,3.5c-2.72,1.82-4.87,4.32-6.35,7.24-1.5,2.97-2.21,6.41-1.64,9.69-4.63.51-9.51.66-14.14,1.17-2.03.22-3.89.97-5.42,2.32-2.73,2.42-2.6,6.53-.93,10.75,1.63,4.12,4.42,8.02,6.87,9.41,4.2,2.4,7.72-.4,10.48-4.45,2.55-3.74,4.55-8.49,6.43-10.84.41-.51.7-1.24,1.3-1.49,1.28-.54,2.69.49,3.9,1.17,2.87,1.63,6.15,2.37,9.44,2.7s6.73.52,9.87-.49c3.14-1.02,6.03-2.95,8.5-5.15s4.35-5.09,5.72-8.1c3.36,1.08,6.93,1.17,10.45,1.04Z"/>
  <g>
    <path class="st10" d="M231.9,135.59c-2.07,1.91-4.03,3.98-6.14,5.93-3.1,2.86-6.07,5.86-9.19,8.68s-6.51,5.39-9.69,8.13c-3.21,2.76-6.36,5.56-9.64,8.17-3.31,2.64-6.88,4.89-10.29,7.33-3.45,2.46-6.55,5.41-10.12,7.6-3.61,2.21-7.27,4.37-11.03,6.24-3.77,1.88-7.96,2.81-11.91,4.28-3.93,1.47-7.77,3.2-11.9,4.21-3.53.86-8.08,1.85-13.1,2.3-4.22.37-8.8.56-13.31.31s-8.86-1.6-12.97-2.78c-4.51-1.29-8.99-2.52-12.13-5.3-3.21-2.85-5.01-6.96-5.82-11.79-.68-4.11-.6-8.29.46-12.34,1.03-3.96,3.06-7.67,5.26-11.22,2.21-3.58,4.44-7.25,7.33-10.06s6.47-4.7,9.66-7.01c3.22-2.34,6.32-4.81,9.63-7.01,3.3-2.19,6.61-4.37,9.8-6.77,3.52-2.64,6.82-5.56,10.04-8.58,3.2-3,6.22-6.2,9.17-9.49,2.93-3.26,5.53-6.81,8.28-10.28s6.02-6.47,8.63-10.03,5.05-7.23,7.59-10.82c2.55-3.61,5.08-7.22,7.62-10.79,2.36-3.32,4.66-6.68,7.14-9.93,2.48-3.24,5.16-6.34,7.55-9.63,2.4-3.31,4.29-6.96,6.38-10.44,2.34-3.89,5.07-7.28,7.63-10.61,2.72-3.53,5.18-7.19,8.49-9.96,3.26-2.73,7.17-4.7,11.33-6.57,4.22-1.89,8.66-2.77,13.08-3.48,4.52-.72,9-1.12,13.5-.69s9.1,1.04,13.37,2.56c3.48,1.24,6.61,3.38,9.7,5.48s5.8,4.45,8.01,7.56c2.77,3.9,4.96,8.4,5.92,13.36.91,4.73.58,9.77.06,14.67-.53,5.03-1.22,10.07-2.81,14.88-1.58,4.81-4.19,9.23-6.38,13.76-1.96,4.05-3.72,8-5.91,11.62-2.3,3.81-4.53,7.55-7.06,10.99-2.61,3.55-5.26,7.02-8.09,10.28s-6.24,6.08-9.29,9.2c-3.03,3.09-5.78,6.48-8.97,9.5-3.12,2.95-6.64,5.55-9.89,8.55Z"/>
    <path class="st10" d="M221.13,46.65c-2.75-3.33-6.15-6.14-9.68-8.37-3.61-2.27-7.65-3.99-11.75-5.03-4.1-1.04-8.44-1.1-12.7-.82-4.17.27-8.26,1.4-12.27,3.02-3.32,1.34-6.37,3.23-9.44,5.25-3,1.98-6.08,3.91-8.88,6.24-3.59,2.99-7.18,6.14-10.43,9.64-3.21,3.46-6.16,7.21-8.72,11.22s-4.73,8.19-6.29,12.73c-1.43,4.14-1.94,8.5-2.25,12.82-.32,4.37-.24,8.73.49,12.98.74,4.35,2.26,8.42,3.99,12.35,1.79,4.07,3.45,8.21,6.19,11.48,2.85,3.39,6.64,5.69,10.4,7.82"/>
    <path class="st8" d="M211.45,41.27c3.75,3.36,6.43,8.16,8.48,12.71,2.23,4.96,3.52,10.87,3.61,16.3.1,5.55-.4,11.16-2.38,16.38-.9,2.39-1.93,4.72-2.75,7.14-.92,2.72-1.67,5.53-2.99,8.1-2.41,4.7-5.85,8.99-9.26,13-3.54,4.17-7.44,7.81-11.9,10.98-4.27,3.03-8.45,6.44-13.1,8.87-4.54,2.37-9.67,4.02-14.54,5.59-5.67,1.82-11.83,3.03-17.16-.32-4.7-2.95-9.52-7.85-11.33-13.18-.8-2.35-4.55-1.34-3.74,1.03,1.78,5.24,5.63,9.57,9.82,13.06,4.25,3.54,8.86,5.48,14.46,5.06,6.03-.46,11.74-2.82,17.37-4.87s10.41-4.89,15.26-8.4,9.46-6.51,13.54-10.61c4.22-4.25,8.06-9.04,11.39-14.01,3.39-5.05,4.79-10.53,6.97-16.12,1.01-2.6,2.19-5.16,2.89-7.87.78-3.03,1.08-6.23,1.24-9.34.35-6.78-.56-13.81-2.99-20.18-2.18-5.72-5.54-11.92-10.15-16.04-1.86-1.66-4.61,1.08-2.75,2.75h0Z"/>
    <path class="st16" d="M96.2,161.64c.37,8.28,5.22,16.65,13.03,19.9.97.4,2.14-.44,2.39-1.36.31-1.12-.38-1.98-1.36-2.39-6.11-2.55-9.9-9.8-10.18-16.16-.11-2.49-3.99-2.5-3.88,0h0Z"/>
    <path class="st16" d="M103.96,158.26c1.03,4.19,2.73,8.25,5.54,11.56,2.69,3.17,6.28,5.48,10.16,6.91.98.36,2.13-.41,2.39-1.36.3-1.08-.37-2.02-1.36-2.39-3.26-1.2-6.19-3.26-8.44-5.91-2.37-2.79-3.68-6.34-4.54-9.85-.59-2.43-4.34-1.4-3.74,1.03h0Z"/>
    <path class="st16" d="M116.23,182.02c3.49.8,7.02,1.66,10.62,1.13,3.28-.48,6.2-2.25,9.14-3.65.95-.45,1.19-1.81.7-2.66-.57-.97-1.71-1.15-2.66-.7-2.54,1.21-5.07,2.79-7.91,3.22s-5.99-.43-8.86-1.08c-2.43-.55-3.47,3.19-1.03,3.74h0Z"/>
    <path class="st16" d="M254.59,18.9l.2-.34c-.39.3-.77.59-1.16.89-.69-.02-.78.21-.27.69.21.36.41.73.6,1.1.29.55.58,1.12.85,1.68.65,1.37,1.22,2.78,1.69,4.23.9,2.75,1.51,5.63,1.83,8.5.65,5.71.47,12.06-1.1,17.61-.69,2.41,3.06,3.44,3.74,1.03,2.11-7.43,2.01-15.93.49-23.45-.75-3.74-2.01-7.32-3.72-10.72-.71-1.41-1.43-3.18-2.83-4.06s-2.85-.51-3.67.88c-1.27,2.16,2.08,4.11,3.35,1.96h0Z"/>
    <path class="st16" d="M266.78,28.33c1,6.59.52,13.62-.6,20.17-1.07,6.25-3.24,12.7-6.46,18.17-1.27,2.16,2.09,4.12,3.35,1.96,3.5-5.97,5.9-13.03,6.97-19.85,1.11-7.08,1.56-14.38.47-21.48-.38-2.46-4.12-1.42-3.74,1.03h0Z"/>
  </g>
  <path class="st15" d="M342.29,331.19c-1.36-1.01-5.34-3.28-8.82-5.86-3.7-2.75-6.73-5.27-5.55-7.57,2.23-4.34,4.83-8.54,10-8.71,4.47-.14,8.7.39,12.96,1.46s8.66,1.76,12.7,3.65c3.95,1.85,7.57,4.51,11.35,6.82,3.78,2.31,7.33,4.96,10.94,7.39,3.62,2.44,6.94,5.67,8.42,9.8s1.7,8.83.18,13.12c-1.77,5-7.6,8.34-12.66,6.76-1.28-.4-2.75-.41-3.9-1.11-3.52-2.15-6.92-4.5-10.45-6.65s-7.25-3.98-10.74-6.19c-2.7-1.71-4.93-4.16-7.35-6.31-2.4-2.12-4.49-4.7-7.07-6.62Z"/>
</svg>