<?xml version="1.0" encoding="UTF-8"?>
<svg id="Layer_1" xmlns="http://www.w3.org/2000/svg" version="1.1" xmlns:xlink="http://www.w3.org/1999/xlink" viewBox="0 0 500 500">
  <!-- Generator: Adobe Illustrator 29.1.0, SVG Export Plug-In . SVG Version: 2.1.0 Build 142)  -->
  <defs>
    <style>
      .st0 {
        fill: #e5e5e6;
      }

      .st1 {
        clip-path: url(#clippath-6);
      }

      .st2 {
        clip-path: url(#clippath-7);
      }

      .st3 {
        clip-path: url(#clippath-4);
      }

      .st4 {
        fill: #bab2a7;
      }

      .st5 {
        fill: #e1c06f;
      }

      .st6 {
        fill: #7ebba8;
      }

      .st7 {
        fill: #4a8e71;
      }

      .st8 {
        fill: #e9ebec;
      }

      .st9 {
        fill: #f2c977;
      }

      .st10 {
        fill: #b05543;
      }

      .st11 {
        fill: #1c1c1c;
      }

      .st12 {
        fill: #669e95;
      }

      .st13 {
        fill: #fbfbfb;
      }

      .st14 {
        fill: #df6a5b;
      }

      .st15 {
        fill: #c49f67;
      }

      .st16 {
        clip-path: url(#clippath-5);
      }

      .st17 {
        fill: #6fae87;
      }

      .st18 {
        fill: #282829;
      }

      .st19 {
        fill: #e3bb7a;
      }

      .st20 {
        fill: #ffc6af;
      }

      .st21 {
        fill: #dc816a;
      }

      .st22 {
        fill: #9fe2cc;
      }

      .st23 {
        fill: #73b2a3;
      }

      .st24 {
        fill: #ffae94;
      }
    </style>
    <clipPath id="clippath-4">
      <path class="st5" d="M207.19,647.57c.06,3.08.39,6.15.51,9.23s-.11,6.17,0,9.25.49,6.15.5,9.24c.01,3.01-.45,6.06-.45,9.12s.13,6.06.15,9.11c.02,3.03.26,6.07.31,9.11s-.36,6.09-.26,9.12.23,6.08.39,9.11c.16,3.04,1.01,6.03,1.25,9.05s.04,6.11.38,9.12c.35,3.04.72,6.06,1.18,9.04.59,3.83,1.48,7.21,2.95,9.82,1.6,2.83,4.12,4.53,8.43,4.91,4.15.36,8.3.63,12.45.95,3.05.23,6.07.96,9.12,1.17,3.05.21,6.13.03,9.19.22,3.05.19,6.1.58,9.15.75,3.06.17,6.11.48,9.16.63,3.06.15,6.12.25,9.18.38s6.13-.04,9.19.07c3.06.11,6.11.29,9.17.38,3.06.09,6.12.23,9.18.29s6.12.33,9.18.37,6.12.02,9.18.04c3.06.02,6.12-.29,9.18-.28,3.06,0,6.12-.18,9.18-.19,3.79-.02,9.7,1.73,12.32-1.83,1.92-2.61,1.35-6.52-.44-9.02-1.49-2.08-3.59-3.65-5.94-4.9s-4.83-2.27-7-3.37c-2.68-1.36-5.28-2.88-7.96-4.24s-5.36-2.72-8.04-4.08-5.35-2.74-8.03-4.1c-2.68-1.36-5.42-2.59-8.1-3.95-2.92-1.48-5.29-2.63-6.78-4.31-1.81-2.04-2.65-4.51-3.12-7.4-.37-2.27-.2-4.91-.22-8.03-.02-3.01-.11-6.02-.08-9.03.02-3.01-.09-6.02-.03-9.03s.38-6.01.47-9.02.09-6.02.23-9.03c.13-3.01,0-6.03.18-9.04.17-3.01.68-5.99.89-9,.21-3,.35-6.01.59-9.01s.36-5.83.65-8.82c-3.25.22-6.34.29-9.6.45s-6.51.28-9.77.38c-3.26.1-6.52-.13-9.78-.08-3.26.05-6.51.22-9.77.24-3.26.01-6.52,0-9.78,0-3.26-.02-6.52-.09-9.78-.12-3.26-.04-6.51-.27-9.77-.32s-6.52.15-9.78.1-6.52.37-9.78.32c-3.26-.04-6.72-.73-9.97-.76-.01,2.23.31,4.76.36,6.98Z"/>
    </clipPath>
    <clipPath id="clippath-5">
      <path class="st20" d="M234.2,131.04c.09-.32.46-.55.56-.85.44-1.31,1.59-5.47,3.21-10.16,1.14-3.3,2.29-6.96,3.7-10.02,2.19-4.75,4.86-8.25,6.9-7.59,2.95.96,5.83,2.16,8.71,3.31s5.59,2.68,8.4,4,5.76,2.35,8.48,3.85c3.63,2,4.9,5.08,4.78,8.52-.11,3.1-1.27,6.57-2.69,9.89s-3.08,6.7-4.14,9.38c-1.11,2.8-2.66,5.81-5.31,6.93-1.72.73-3.65.73-5.44.43-3.29-.55-6.21-1.54-8.97-2.54-2.95-1.07-5.49-2.74-8.17-4.37-2.52-1.53-5.17-3.03-7.75-5.1-.83-.66-1.75-1.34-2.14-2.33-.41-1.03-.45-2.25-.13-3.34Z"/>
    </clipPath>
    <clipPath id="clippath-6">
      <path class="st14" d="M266.73,112.16c-1.53-2.58-1.86-6.3-1.07-9.32.84-3.2,3.02-5.92,7.07-5.14,3.73.72,7.39,1.93,11.16,2.42,1.96.26,7.31-.54,7.99,2.03.5,1.91-1.35,4.8-3.56,7.26s-4.8,4.67-6.21,5.39c-2.18,1.11-5.33,1.24-8.24.95s-5.71-1.19-7.13-3.6Z"/>
    </clipPath>
    <clipPath id="clippath-7">
      <path class="st9" d="M129.95,662.79c.06,3.08-.18,6.17-.07,9.25s.57,6.15.67,9.23.32,6.16.33,9.25c.01,3.01-.45,6.06-.44,9.12s.33,6.06.35,9.11-.14,6.07-.09,9.11.12,6.07.21,9.11-.08,6.09.07,9.12.77,6.05,1.01,9.07c.24,3.04.51,6.07.86,9.07s.36,6.1.83,9.09c.59,3.83,1.34,7.33,2.81,9.93,1.6,2.83,4.32,4.7,8.64,5.07,4.15.36,8.33.28,12.48.6,3.05.23,6.07.97,9.12,1.19s6.11.32,9.17.52c3.05.19,6.1.52,9.16.69,3.06.17,6.14-.19,9.2-.04,3.06.15,6.09.71,9.15.84,3.06.13,6.11.45,9.17.56s6.14-.51,9.2-.42c3.06.09,6.11.61,9.17.68s6.13-.28,9.19-.23c3.06.05,6.12.45,9.18.48,3.06.02,6.12.25,9.18.26s6.12-.13,9.18-.14c3.79-.02,10.02,1.49,12.64-2.07,1.92-2.61,1.15-6.85-.65-9.35-1.49-2.08-3.66-3.66-6.01-4.91-2.34-1.24-4.87-2.19-7.04-3.29-2.68-1.36-5.28-2.87-7.96-4.23s-5.35-2.73-8.03-4.09-5.51-2.41-8.19-3.77c-2.68-1.36-5.38-2.67-8.06-4.03-2.92-1.48-5.07-2.94-6.56-4.62-1.81-2.04-2.36-4.48-2.84-7.37-.37-2.27-.45-4.84-.47-7.97-.02-3.01-.2-6.02-.18-9.03.02-3.01-.17-6.02-.11-9.03.06-3.01-.1-6.03,0-9.04s.25-6.02.38-9.03c.13-3.01.67-6,.84-9s.25-6.02.46-9.02c.21-3,.6-5.99.85-8.99s.42-6.04.7-9.04c-3.25.22-6.53.63-9.78.79s-6.53-.08-9.79.02c-3.26.1-6.51.17-9.77.23s-6.51.31-9.77.33-6.52.3-9.78.29c-3.26-.02-6.52-.08-9.78-.11-3.26-.04-6.51-.65-9.77-.7-3.26-.05-6.52.05-9.78,0-3.26-.05-6.52-.33-9.77-.37-3.26-.04-6.36.51-9.61.49-.01,2.23.09,4.21.14,6.43Z"/>
    </clipPath>
  </defs>
  <path class="st20" d="M435.14,219.5c-2.29-1.11-5.33-2.45-8.58-3.77-2.89-1.17-5.83-2.51-8.42-4.06-2.98-1.79-5.44-3.76-6.59-6.34-1.34-3.02-1.06-6.96-.18-10.92s1.93-7.89,2.82-10.79c.93-3.02,2.23-6.04,3.54-9.05s2.63-5.97,4.34-8.7c1.73-2.77,3.96-5.19,6.17-7.5s4.85-4.22,7.66-5.84,5.58-3.15,8.88-3.82c3.75-.76,7.61-.62,11.44-.66,3.81-.04,7.64-.03,11.45.17,1.15.06,2.71-.07,3.45.81.57.67.75,1.82.81,2.69.23,3.32.24,6.67.31,9.99.07,3.33-.29,6.66-.37,9.99-.09,3.33-.35,6.64-.6,9.96s-.43,6.64-.84,9.94c-.34,2.8-.72,5.7-2.29,8.04-1.41,2.1-3.44,3.76-5.57,5.14-2.51,1.63-5.02,3.25-7.53,4.88s-5.02,3.25-7.53,4.88-5.24,2.91-7.75,4.54c-.67.43-1.29.86-2.09.93-.88.08-1.73-.11-2.53-.5Z"/>
  <path class="st13" d="M450.14,213.34s0,.28,0,.28c-3.74,0-6.99-1.89-9.44-4.34-2.45-2.45-4.44-5.7-4.44-9.44,0-4.56.45-4.56.45-9.12,0-4.56-.27-4.56-.27-9.13,0-4.56-.18-4.56-.18-9.13,0-4.56.32-4.56.32-9.13,0-4.57.04-4.57.04-9.13s.05-4.56.05-9.13c0-4.57.2-4.57.2-9.13s-.49-4.57-.49-9.14.41-4.57.41-9.14c0-1.32.88-2.59,2.21-2.59,5.57,0,5.57.47,11.14.47s5.57-.4,11.14-.4c1.32,0,2.75,1.19,2.75,2.51,0,4.56-.05,4.56-.05,9.12,0,4.56.07,4.56.07,9.13s-.65,4.56-.65,9.13c0,4.56.12,4.56.12,9.13s.05,4.57.05,9.13c0,4.56.17,4.56.17,9.13s0,4.57,0,9.13c0,4.57.07,4.57.07,9.14s-.29,4.57-.29,9.14c0,3.74-1.36,7.1-3.81,9.55-2.45,2.45-5.81,3.94-9.55,3.94Z"/>
  <path class="st7" d="M448.74,167.06c.31-6.33.06-12.71.58-19.04.27-3.28,1.11-6.47,1.17-9.78.06-3.18-.19-6.33.09-9.51.28-3.13.76-6.22.8-9.37s-.07-6.27-.23-9.39c-.16-3.12-.69-6.21-1.09-9.31s-.72-6.08-1.53-9.03c-.9-3.33-2.41-6.47-3.93-9.56s-3.11-5.91-5.22-8.54c-1.17-1.47-3.23.61-2.07,2.07,1.82,2.27,3.21,4.84,4.51,7.44,1.38,2.76,2.74,5.54,3.64,8.5s1.27,6.06,1.67,9.13c.39,3,.9,5.99,1.08,9.01s.27,6.07.25,9.09-.42,6.04-.72,9.07-.19,6.1-.17,9.18-.56,6.1-.97,9.17c-.92,6.88-.45,13.95-.79,20.87-.09,1.88,2.83,1.87,2.92,0h0Z"/>
  <path class="st7" d="M422.85,86.88c.74.05,1.53-.41,2.26-.31,2.87.38,5.57,1.77,8.39,2.49s5.76,1.09,8.67,1.11c1.73.01,3.49-.27,5.02-1.06,2.35-1.23,3.88-3.84,3.82-6.5s-1.74-5.1-4.14-6.23c-.39-.18-.88-.39-1.11-.76-.29-.46-.38-1.19-.28-1.73.57-3.11.2-5.61-1.37-7.47s-4.16-3.34-6.84-3.95-5.45-.16-7.85.5c-2.85.79-5.56,1.84-8.05,3.34-2.51,1.52-4.83,3.31-6.86,5.43s-3.56,4.59-4.98,7.17c-.88,1.61-1.6,3.25-1.8,5.07-.05.5-.53,1.23-.21,1.61.29.34.99.28,1.43.36,4.57.84,9.26.61,13.9.92Z"/>
  <path class="st22" d="M440.24,139.28c-1.55,4.77.25,5.03.25,10.05s-.34,5.02-.34,10.03.48,5.02.48,10.04c0,5.02-.65,5.02-.65,10.03,0,5.02.58,5.02.58,10.04,0,5.02-.57,5.02-.57,10.04,0,2.49,1.1,4.93,2.6,6.75s3.77,2.98,6.27,3.3c2.98.38,5.79-.47,7.82-2.26s3.1-4.5,3.1-7.45c0-4.35.47-4.35.47-8.69,0-4.35.1-4.35.1-8.69,0-4.35-.42-4.35-.42-8.7,0-4.35-.09-4.35-.09-8.69,0-4.35-.21-4.35-.21-8.7s.13-4.35.13-8.7c0-4.35,1.7-4.61.17-8.68-3.28,0-6.51-.16-9.79-.1s-6.62.29-9.9.39Z"/>
  <path class="st20" d="M404.09,183.4c1.32-2.44,2.41-4.89,3.38-7.32.99-2.49,1.85-5.03,2.63-7.61.76-2.5.93-5.21,1.64-7.88.46-1.71.97-3.55,2.03-4.96,1.07-1.44,2.68-2.53,4.21-3.46,2.66-1.61,5.42-3.05,8.07-4.66s5.54-2.84,8.2-4.45c1.41-.86,2.68-2.23,4.31-2.46,3.6-.51,7.26,2.63,8.13,6.16s-.53,7.38-2.63,10.34c-2.11,2.96-4.83,5.47-7.59,7.83-.91.77-1.92,1.44-2.12,2.62-.18,1.04.06,2.09.47,3.07,1.23,2.97,1.82,6.1,2.18,9.28.36,3.18.24,6.34-.25,9.51s-1.26,6.24-2.55,9.17c-1.29,2.93-2.69,5.85-4.75,8.31-1.76,2.11-4.28,4.04-7,3.63-1.42-.22-2.6-1.12-3.76-1.97-2.67-1.95-5.32-3.91-7.99-5.86-2.67-1.95-5.25-4.02-7.91-5.96"/>
  <path class="st10" d="M152.57,173.66c2.8,1.91,5.81,3.14,8.73,4.4,3.03,1.3,5.97,2.78,9.1,3.63,3.15.85,6.36,1.5,9.57,2.15s6.47.88,9.68,1.58c3.16.69,6.22,1.85,9.38,2.82,2.87.89,5.66,1.3,8.29,1.73,2.89.48,5.67.72,8.42.71,2.82-.01,5.6-.26,8.42-.73,2.69-.45,5.32-1.42,8.15-2.22,2.58-.73,5.41-1.09,8.21-2.08,3.02-1.06,5.94-2.53,9.02-3.69,3.01-1.13,6.08-2.21,9.1-3.45,2.99-1.23,6.12-2.18,9.08-3.53,2.95-1.35,5.69-3.16,8.56-4.66,2.88-1.5,5.68-3.15,8.45-4.82s5.71-3.15,8.34-5.03,5.34-3.77,7.79-5.88,4.47-4.74,6.68-7.1c2.21-2.37,4.71-4.53,6.62-7.16s3.2-5.63,4.75-8.52,3.31-5.58,4.45-8.68c1.11-3.01,1.47-6.25,2.21-9.36s1.46-6.22,1.86-9.4c.4-3.17.78-6.35.85-9.56.07-3.19.11-6.41-.12-9.61s-.5-6.4-1-9.56c-.5-3.16-1.62-6.21-2.37-9.32-.75-3.09-1.19-6.29-2.19-9.32s-2.69-5.79-3.96-8.71-2.19-6.03-3.75-8.8c-1.56-2.78-3.3-5.48-5.16-8.07s-4.02-4.95-6.21-7.28-4.18-4.64-6.58-6.53-5.08-3.59-7.75-5.12-5.63-2.54-8.49-3.69-5.82-1.97-8.81-2.71-6.01-1.18-9.08-1.52-6.11-.84-9.19-.77-6.18.16-9.23.64-6.01,1.4-8.96,2.29-5.93,1.73-8.74,3.03-5.61,2.64-8.21,4.34c-2.65,1.73-4.75,4.17-7.13,6.21s-4.64,4.2-6.84,6.45-4.77,4.14-6.88,6.48-4.03,4.84-6.13,7.17c-1.96,2.17-4.09,4.17-6.09,6.3s-3.79,4.45-5.83,6.54-3.93,4.33-6.02,6.38-4.36,3.9-6.49,5.9-4.32,3.94-6.48,5.89-4.31,3.94-6.52,5.86c-2.43,2.11-5.08,3.73-7.52,5.51-2.56,1.87-4.87,3.97-7.51,5.55s-5.53,2.83-8.34,4.2-5.64,2.44-8.58,3.64-5.51,2.74-8.53,3.82c-4.12,1.47-8.64,2.48-11.91,5.35-2.22,1.95-3.31,4.82-4.13,7.64s-1.08,5.73-.23,8.56,2.43,5.41,4.69,7.34c2.24,1.92,4.99,3.26,7.93,3.71-.66,3.44-.3,6.89.43,10.28s1.61,6.83,3.47,9.78,4.35,5.53,7.08,7.66c2.73,2.12,6,3.39,9.38,4.33,2.3.64,4.6,1.38,6.96,1.81s4.61,1.14,6.81,2.1c3.06,1.33,5.78,3.22,8.53,5.1Z"/>
  <path class="st18" d="M229.59,363.46c3.11-.51,6.47-.72,9.96-.74,3.24-.02,6.61.07,9.99.36,3.31.29,6.64.74,9.93,1.24s6.66,1.21,9.83,1.83c3.47.68,6.84,1.05,9.85,1.73,3.77.85,6.95,2.29,9.58,2.91,1.69.39,3.38.66,4.76,1.72,2.38,1.84,3.33,4.87,3.87,7.82.56,3.12.97,6.27,1.47,9.4.5,3.13.94,6.27,1.37,9.41.44,3.14,1.17,6.24,1.55,9.39.38,3.15.6,6.32.92,9.47s.66,6.31.93,9.47.2,6.34.42,9.5c.22,3.16.22,6.33.4,9.5s.52,6.32.65,9.48c.13,3.17.08,6.34.17,9.5.09,3.17.63,6.32.68,9.49s.02,6.34.05,9.51-.2,6.34-.2,9.51c0,3.17.47,6.34.44,9.51-.02,3.17-.65,6.33-.69,9.5s-.07,6.33-.13,9.5-.19,6.33-.26,9.5.15,6.34.07,9.51c-.08,3.17.13,6.34.04,9.51s-.51,6.33-.61,9.49-.13,6.34-.23,9.5-.32,6.33-.43,9.49.19,6.34.07,9.51c-.11,3.16-.32,6.33-.44,9.49s-.44,6.32-.57,9.49c-.13,3.16-.19,6.33-.33,9.5s-.16,6.33-.3,9.5c-.14,3.16-.48,6.32-.63,9.49-.15,3.16-.35,6.32-.51,9.49s-.54,6.31-.71,9.48-.14,6.33-.31,9.49-.49,6.31-.67,9.48-.39,6.32-.58,9.49c-.19,3.16.15,6.35-.05,9.52s-.96,6.28-1.17,9.46,0,6.35-.21,9.52c-.19,2.85-1.08,5.75-3.07,7.81-2.54,2.63-6.52,2.92-10.17,2.85-3.12-.06-6.23-.37-9.35-.48s-6.25.12-9.36-.03-6.22-.49-9.33-.68c-3.11-.19-6.23-.36-9.34-.59-3.11-.23-6.2-.68-9.31-.96-3.11-.28-6.21-.58-9.31-.9-3.31-.34-6.94-.35-9.7-2.2-2.76-1.85-4.26-4.93-5.15-8.16s-1.05-6.49-1.16-9.64c-.1-3.09.08-6.2,0-9.29s-.65-6.17-.73-9.27.21-6.2.15-9.29c-.06-3.09-.47-6.18-.52-9.28s.21-6.19.16-9.29-.07-6.19-.11-9.28.03-6.19,0-9.29-.49-6.19-.51-9.28.39-6.19.38-9.29c-.02-3.09-.4-6.19-.41-9.28-.01-3.1.39-6.19.38-9.29s-.2-6.19-.21-9.28.23-6.19.22-9.29c-.01-3.1-.64-6.19-.65-9.28s-.03-6.19-.04-9.28.21-6.19.19-9.29.35-6.19.33-9.29-.07-6.19-.1-9.29c-.03-3.1,0-6.19-.04-9.29s-.64-6.18-.69-9.28-.08-6.19-.14-9.28.1-6.19.03-9.29.03-6.19-.06-9.29c-.09-3.09-.45-6.18-.55-9.27-.09-2.63-.31-5.26-.37-7.89-.08-3.3.06-6.61.02-9.92s-.1-6.61-.1-9.91c0-3.3.05-6.61.09-9.91s.23-6.6.29-9.91,0-6.61.09-9.91c.08-2.69.03-5.74-.07-8.97-.09-2.88-.26-5.9-.33-8.97s.07-6.01.16-8.97-.06-6.15.36-8.99c.47-3.17,1.32-6.14,2.4-8.68,1.46-3.42,4.1-5.94,7.37-7.77,2.9-1.62,6.41-2.7,10.28-3.33Z"/>
  <g>
    <path class="st5" d="M207.19,647.57c.06,3.08.39,6.15.51,9.23s-.11,6.17,0,9.25.49,6.15.5,9.24c.01,3.01-.45,6.06-.45,9.12s.13,6.06.15,9.11c.02,3.03.26,6.07.31,9.11s-.36,6.09-.26,9.12.23,6.08.39,9.11c.16,3.04,1.01,6.03,1.25,9.05s.04,6.11.38,9.12c.35,3.04.72,6.06,1.18,9.04.59,3.83,1.48,7.21,2.95,9.82,1.6,2.83,4.12,4.53,8.43,4.91,4.15.36,8.3.63,12.45.95,3.05.23,6.07.96,9.12,1.17,3.05.21,6.13.03,9.19.22,3.05.19,6.1.58,9.15.75,3.06.17,6.11.48,9.16.63,3.06.15,6.12.25,9.18.38s6.13-.04,9.19.07c3.06.11,6.11.29,9.17.38,3.06.09,6.12.23,9.18.29s6.12.33,9.18.37,6.12.02,9.18.04c3.06.02,6.12-.29,9.18-.28,3.06,0,6.12-.18,9.18-.19,3.79-.02,9.7,1.73,12.32-1.83,1.92-2.61,1.35-6.52-.44-9.02-1.49-2.08-3.59-3.65-5.94-4.9s-4.83-2.27-7-3.37c-2.68-1.36-5.28-2.88-7.96-4.24s-5.36-2.72-8.04-4.08-5.35-2.74-8.03-4.1c-2.68-1.36-5.42-2.59-8.1-3.95-2.92-1.48-5.29-2.63-6.78-4.31-1.81-2.04-2.65-4.51-3.12-7.4-.37-2.27-.2-4.91-.22-8.03-.02-3.01-.11-6.02-.08-9.03.02-3.01-.09-6.02-.03-9.03s.38-6.01.47-9.02.09-6.02.23-9.03c.13-3.01,0-6.03.18-9.04.17-3.01.68-5.99.89-9,.21-3,.35-6.01.59-9.01s.36-5.83.65-8.82c-3.25.22-6.34.29-9.6.45s-6.51.28-9.77.38c-3.26.1-6.52-.13-9.78-.08-3.26.05-6.51.22-9.77.24-3.26.01-6.52,0-9.78,0-3.26-.02-6.52-.09-9.78-.12-3.26-.04-6.51-.27-9.77-.32s-6.52.15-9.78.1-6.52.37-9.78.32c-3.26-.04-6.72-.73-9.97-.76-.01,2.23.31,4.76.36,6.98Z"/>
    <g class="st3">
      <path class="st13" d="M215.84,766.41c2.94.08,5.86.72,8.8.87s5.9-.09,8.83.12c2.93.21,5.85.69,8.78.96,2.93.27,5.85.58,8.78.89s5.87.43,8.79.78c2.92.35,5.81.98,8.72,1.37,2.92.38,5.89.36,8.8.76s5.81.93,8.72,1.35,5.84.76,8.75,1.18c3.34.49,6.61,1.42,9.95,1.91,3.34.49,6.72.68,10.06,1.16,3.34.48,6.63,1.31,9.97,1.77,3.34.46,6.77.3,10.11.72,2.93.37,5.81.93,8.67,1.38,2.91.46,5.73,1.41,8.62,1.72,2.91.31,5.84.2,8.78.12,2.86-.08,5.67-.72,8.62-1.38,2.78-.62,6-1.21,7.48-3.64,2.07-3.39,2.32-6.31,1.37-8.6-.99-2.38-3.3-4.51-6.58-5.94-2.43-1.05-5.45-1.74-8.65-2.38-2.77-.56-5.8-.8-8.87-1.12s-5.93-.81-8.9-.94-6.09-.21-8.95-.24c-3.25-.03-6.29.42-8.94.45-4.22.06-7.44.12-8.93.05-3.22-.14-6.42-.7-9.64-.85-3.22-.15-6.47.36-9.69.19-3.22-.17-6.41-.76-9.63-.94-3.22-.19-6.46.03-9.67-.17-3.22-.2-6.41-.75-9.62-.96-3.21-.22-6.42-.57-9.63-.8-3.21-.23-6.43-.44-9.64-.69-3.21-.25-6.42-.49-9.64-.75-3.21-.26-6.42-.53-9.63-.81-3.21-.28-6.45-.19-9.66-.48s-6.4-.81-9.6-1.12c-3.53-.34-7.78-.18-9.21,3.06-1.86,4.19-.41,7.11,2.51,8.86,2.98,1.79,7.28,2.07,9.95,2.15Z"/>
    </g>
  </g>
  <path class="st11" d="M147.43,351.51c.36-.03.72-.24,1.1-.25,3.11-.09,6.23-.16,9.34-.25,3.11-.08,6.22-.36,9.34-.42,3.11-.07,6.24.4,9.35.35,3.12-.04,6.23-.04,9.34-.05,3.12,0,6.23-.63,9.35-.6,3.12.03,6.22.71,9.33.8,3.12.08,6.25-.49,9.37-.35s6.22.49,9.33.7c3.11.21,6.17,1,9.27,1.29s6.26.08,9.35.45c3.09.37,6.19.77,9.27,1.24,3.08.47,6.3,1.08,9.37,1.65-1.05,2.82-2.27,5.76-3.31,8.58-1.04,2.82-1.85,5.73-2.88,8.56-1.03,2.83-2.25,5.59-3.27,8.42-1.01,2.83-1.71,5.78-2.72,8.62-1,2.84-2.59,5.47-3.58,8.31s-1.74,5.77-2.72,8.61-2.14,5.63-3.11,8.48c-.97,2.87-1.8,6.01-2.98,9.07-1.14,2.97-2.44,5.92-3.35,8.94s-1.78,6.28-2.02,9.33c-.22,2.75.18,5.58.18,8.44s-.32,5.62-.29,8.43.12,5.66.02,8.42c-.12,3.27-.54,6.54-.65,9.81-.11,3.27-.1,6.55-.21,9.83s.29,6.57.18,9.84-.84,6.53-.95,9.8c-.1,3.28.05,6.56-.05,9.83s-.24,6.55-.33,9.82.14,6.56.05,9.84-.07,6.55-.15,9.83c-.09,3.28-.33,6.55-.41,9.82-.08,3.17-.14,6.34-.22,9.5s-.21,6.33-.3,9.5c-.09,3.17-.64,6.32-.74,9.49s-.11,6.33-.22,9.5c-.11,3.16.28,6.35.16,9.51s-.62,6.31-.74,9.48,0,6.34-.13,9.5c-.13,3.16-.12,6.33-.26,9.5s-.58,6.31-.72,9.48-.17,6.33-.32,9.5c-.15,3.16-.69,6.31-.85,9.48-.16,3.16-.29,6.32-.46,9.49s-.24,6.32-.41,9.49c-.17,3.16-.23,6.33-.41,9.49s-.02,6.34-.21,9.51-.65,6.3-.84,9.47c-.19,3.16-.46,6.32-.67,9.49s-.42,6.32-.64,9.49c-.19,2.85-.58,6.07-2.57,8.13-2.54,2.63-6.83,2.81-10.49,2.74-3.12-.06-6.24-.25-9.35-.35-3.12-.1-6.23-.36-9.34-.51-3.12-.15-6.21-.63-9.32-.82s-6.26.16-9.37-.07c-3.11-.23-6.2-.74-9.31-1.02s-6.22-.53-9.32-.85c-3.31-.34-6.57-1.07-9.33-2.93-2.76-1.85-4.67-4.4-5.55-7.63-.84-3.07-1.23-6.5-1.33-9.65-.1-3.09.3-6.2.21-9.3s-.69-6.17-.76-9.27.09-6.19.03-9.29c-.06-3.09-.33-6.19-.39-9.28s.25-6.2.21-9.29.2-6.19.17-9.29-.37-6.19-.4-9.28-.17-6.19-.19-9.28-.25-6.19-.26-9.28.48-6.19.47-9.29-.08-6.19-.09-9.28.12-6.19.11-9.29-.02-6.19-.03-9.29-.52-6.19-.54-9.28.29-6.19.28-9.29-.04-6.19-.06-9.28-.04-6.19-.07-9.28-.12-6.19-.15-9.28-.05-6.19-.09-9.28-.05-6.19-.11-9.28-.26-6.19-.33-9.28-.19-6.19-.26-9.28-.35-6.18-.44-9.28.41-6.2.3-9.3c-.09-2.63-.63-5.25-.69-7.88-.07-3.23.33-6.46.29-9.69s.04-6.45.04-9.68,0-6.45.02-9.68.06-6.45.12-9.68-.44-6.47-.34-9.69.74-6.43.86-9.66.36-6.44.51-9.66.24-6.45.43-9.67.39-6.27.61-9.41.17-6.29.41-9.42.49-6.27.74-9.4c.25-3.13.57-6.26.83-9.39.23-2.78.39-5.44.82-7.82.52-2.85,1.2-5.45,3.04-7.18,1.59-1.5,4.04-2.14,7.38-2.4Z"/>
  <path class="st4" d="M120.36,260.78c.15-1.37.58-2.7.73-4.06.33-2.9.85-5.79,1.21-8.69s.68-5.8,1.09-8.7.91-5.77,1.38-8.66c.47-2.89.71-5.81,1.26-8.68s1.3-5.7,1.95-8.55c.65-2.85,1-5.78,1.76-8.6.76-2.82,2.13-5.46,3.02-8.25s1.64-5.52,2.66-8.22c1.02-2.7,1.67-5.55,2.84-8.19,1.17-2.64,2.57-5.18,3.89-7.74s3.09-4.87,4.59-7.34c1.5-2.46,3.02-4.9,4.69-7.25,2.09-2.93,4.09-5.46,6.11-7.71,2.33-2.6,4.5-4.95,7.1-6.79s5.4-3.45,8.66-4.7c2.8-1.07,5.93-2.02,9.48-2.77,2.95-.61,5.9-1.17,8.84-1.54,2.98-.38,5.98-.31,8.95-.48,2.99-.17,5.96-.29,8.94-.3s5.97-.05,8.96.08,5.96.33,8.94.54c2.97.21,5.94.55,8.91.81s5.92.8,8.89,1.06c2.97.26,5.98.1,8.96.33,3.37.26,6.73.67,10.08,1.1,3.35.43,6.75.66,10.07,1.3,3.32.64,6.52,1.83,9.78,2.73,2.17.6,4.87,1.4,7.67,2.21,2.57.74,5.25,1.4,7.52,2.59,2.55,1.34,4.83,2.95,5.94,5.22,1.73,3.52,1.84,7.65,1.96,11.57.1,3.11.22,6.22.31,9.33s-.13,6.23-.05,9.34c.08,3.11.26,6.22.33,9.33.06,3.11.27,6.22.32,9.33s-.29,6.23-.24,9.34.08,6.22.11,9.33c.03,3.11.5,6.22.51,9.33.02,3.11-.23,6.22-.22,9.33s.23,6.22.23,9.33c0,2.99-.21,6-.31,9.03-.09,3-.25,6.01-.39,9.03s-.32,6.01-.49,9.02-.35,6.01-.53,9.02c-.17,3.01-.07,6.03-.22,9.04s-.21,6.03-.31,9.03-.55,6.03-.56,9.03c-.02,3.03.02,6.05.11,9.04s.11,6.06.35,9.04c.26,3.23,1.04,6.46,1.73,9.7s1.58,6.37,2.34,9.55c.77,3.21,1.33,6.45,1.83,9.64.4,2.6.6,5.17-.14,7.68-1.04,3.5-3.37,6.07-6.78,7.46-3.16,1.29-6.97,1.68-10.33,2-4.25.41-8.49.87-12.74,1.25-2.95.26-5.91.5-8.86.74s-5.93.2-8.89.43-5.89.77-8.84.98c-2.96.21-5.94.08-8.89.28-2.96.19-5.9.66-8.86.84-2.96.18-5.94-.04-8.9.12s-5.9.78-8.86.92-5.92.35-8.88.48-5.94-.25-8.9-.14c-3.33.12-6.66.45-9.99.55s-6.66.45-9.99.53c-3.33.07-6.68-.34-10.01-.28-3.33.05-6.67.07-10,.1-2.51.02-5.42.49-8.48.71-2.76.19-5.66.17-8.5.15-2.93-.02-5.75-.35-8.38-.96-2.9-.68-5.33-1.82-7.36-3.7-3.01-2.79-4.24-5.43-4.56-8.51s-.16-6.41.15-10.03.24-6.77-.25-10.04-.91-6.67-1.71-9.97-1.76-6.43-2.34-9.79-1.42-6.4-1.77-9.63-.22-6.53-.39-9.79-.51-6.51-.52-9.77.07-6.52.19-9.79.49-6.51.7-9.76c.22-3.25.48-6.5.78-9.75s.28-6.53.63-9.77Z"/>
  <path class="st10" d="M299.7,55.92c.05-2.62.13-5.52-.26-8.55-.36-2.74-.92-5.59-1.65-8.42s-1.85-5.42-2.94-8.04-2.18-5.39-3.7-7.71c-1.63-2.5-3.45-4.75-5.56-6.51-2.12-1.78-4.66-3-7.15-4.23-2.99-1.48-6.08-2.54-9.19-3.35s-6.44-1.2-9.67-1.37-6.57-.32-9.79.16c-3.24.48-6.29,1.74-9.36,2.84s-6.15,2.2-8.96,3.88-5.65,3.38-8.08,5.59-4.49,4.77-6.43,7.44-3.6,5.44-4.97,8.47c-1.43,3.17-2.51,6.52-3.23,9.92s-1.18,6.9-1.2,10.37c-.02,3.47.87,6.88,1.55,10.29s1.57,6.72,2.96,9.91c1.34,3.09,2.54,6.06,4.07,8.81s3.19,5.47,5.97,7.56c2.57,1.94,5.38,3.54,8.16,5.15,2.78,1.61,5.54,3.22,7.78,5.61,2.78,2.97,4.61,6.67,6.54,10.26,1.93,3.59,4.12,7.17,7.42,9.55,2.97,2.15,6.08,2.35,9.18,1.51,2.92-.79,5.73-2.6,8.38-4.65s5.43-4.2,7.45-6.19,3.36-4.33,5.03-6.5c1.67-2.17,3.73-4.09,5.13-6.44,1.4-2.35,2.11-5.09,3.25-7.57s2.52-4.9,3.41-7.47c1.13-3.25,2.19-6.55,3.09-9.88.9-3.34,1.53-6.74,2.08-10.14s.66-6.84.72-10.3Z"/>
  <path class="st20" d="M317.18,71.9c2.32-2.35,6.29-3.2,9.72-2.34,2.48.62,4.86,1.89,6.81,3.42s3.56,3.76,4.69,5.94c1.1,2.13,1.86,4.45,2.07,6.78s-.19,4.76-.8,7.04c-.69,2.58-1.72,5.15-3.3,7.37-1.53,2.16-3.59,4.01-5.79,5.64s-4.55,2.85-7.12,3.76-5.52,1.51-8.4,1.63-5.74-.21-8.52-.86-5.49-1.72-7.95-3.13"/>
  <g>
    <path class="st20" d="M234.2,131.04c.09-.32.46-.55.56-.85.44-1.31,1.59-5.47,3.21-10.16,1.14-3.3,2.29-6.96,3.7-10.02,2.19-4.75,4.86-8.25,6.9-7.59,2.95.96,5.83,2.16,8.71,3.31s5.59,2.68,8.4,4,5.76,2.35,8.48,3.85c3.63,2,4.9,5.08,4.78,8.52-.11,3.1-1.27,6.57-2.69,9.89s-3.08,6.7-4.14,9.38c-1.11,2.8-2.66,5.81-5.31,6.93-1.72.73-3.65.73-5.44.43-3.29-.55-6.21-1.54-8.97-2.54-2.95-1.07-5.49-2.74-8.17-4.37-2.52-1.53-5.17-3.03-7.75-5.1-.83-.66-1.75-1.34-2.14-2.33-.41-1.03-.45-2.25-.13-3.34Z"/>
    <g class="st16">
      <path class="st21" d="M252.15,97.65c2.13-.33,4.55.13,6.69.69,2.53.66,5.89,1.51,9.37,2.6,3.08.97,6.28,2.13,9.02,3.63,3.14,1.72,5.84,3.85,7.12,6.52s1.42,5.74.99,8.66-1.58,5.59-2.75,8.3-2.63,5.49-3.75,7.92c-.74,1.59-1.26,3.44-2.54,4.64-1.28,1.2-3.31,1.66-4.99,1.18-.88-.25-1.74-.65-2.46-1.21-2.27-1.76-4.09-3.99-6.02-6.09-1.94-2.09-3.79-4.24-5.45-6.58s-2.98-4.85-4.39-7.34-3.01-4.88-4.23-7.45c-1.08-2.28-1.82-4.66-2.03-7.17s.18-5.29,2.15-6.87c.95-.77,2.1-1.25,3.29-1.44Z"/>
    </g>
  </g>
  <path class="st20" d="M231.82,95.27c-.39-1.07-1.04-2.06-1.36-3.17-.86-2.97-1.45-6.14-2.05-9.38s-1.23-6.26-1.54-9.49-.73-6.41-.76-9.6c-.03-3.25.11-6.5.38-9.64.28-3.28,1.27-6.4,1.9-9.44.67-3.22,1.09-6.55,2.31-9.56,1.24-3.08,3.22-5.76,5.09-8.41s3.78-5.44,6.39-7.45c2.51-1.93,5.51-3.43,8.76-4.53,2.7-.92,5.51-1.63,8.34-1.95s5.72.13,8.55.03c3.04-.11,6.15-.52,9.29-.43s6.15.74,9.23,1.08,6.13.81,9.14,1.47,6.1,1.23,8.99,2.28,5.81,2.25,8.5,3.77c2.8,1.58,5.18,3.59,7.03,5.92s3.08,5.23,4.15,8.17c1.02,2.78,1.75,5.76,2.17,8.88.41,2.96.39,6.03.39,9.15s.16,6.12-.12,9.18-.6,6.16-1.07,9.13c-.5,3.14-1.58,6.08-2.16,8.94-.66,3.26-.77,6.41-1.36,9.08-.62,2.84-1.83,5.56-2.63,8.37s-1.57,5.63-2.77,8.27-2.38,5.36-4.22,7.66c-2.13,2.66-4.93,4.61-7.76,6.48s-5.77,3.45-8.97,4.6c-3.18,1.14-6.52,1.79-9.83,2.33-3.27.53-6.48,1-9.68.88-3.28-.12-6.54-.51-9.67-1.27-3.18-.77-6.23-1.95-9.16-3.32s-5.86-2.9-8.48-4.81-4.96-4.2-7.18-6.6c-2.19-2.37-4.1-5.01-5.81-7.8s-2.9-5.73-4.04-8.82Z"/>
  <path class="st20" d="M230.34,61.68c-1.78-2.78-5.85-3.98-9.38-3.85-2.55.09-5.11.7-7.33,1.8s-4.38,2.8-5.93,4.69c-1.52,1.85-2.59,4.05-3.28,6.28s-.69,4.66-.57,7.01c.13,2.66.58,5.33,1.66,7.83s2.31,4.92,4.12,6.97c1.75,1.98,4.07,3.53,6.4,4.95,2.41,1.47,5.14,2.38,7.93,3.1s5.58.96,8.43.91,5.8-.01,8.5-.88"/>
  <path class="st11" d="M289.36,96c.36-.18.45-.78.73-1.07.88-.88,1.24-2.16.94-3.37-.24-.97-3.06-7.93-4.1-4.53-.9,2.94-3.82,12.07,2.43,8.97Z"/>
  <path class="st24" d="M238.79,94.64c-1.41-3-1.63-5.92-.73-8.41,1.05-2.89,3.27-5.4,6.1-6.01,2.45-.52,5.15.71,7.92,3.08,3.31,2.83,4.48,6.69,2.95,10.99-1.36,3.83-5.61,5.53-9.66,5.18-1-.09-1.9-.27-2.8-.7-1.77-.85-2.95-2.35-3.78-4.13Z"/>
  <path class="st24" d="M299.29,105.24c-1.87-4.15-.56-8.34,1.83-10.76s6.25-3.03,10.09.38c2.85,2.52,4.35,6.17,3.02,10.02-1.19,3.42-5.4,5.05-8.9,4.75-.86-.07-1.75-.22-2.53-.61-1.53-.75-2.79-2.19-3.51-3.78Z"/>
  <g>
    <path class="st14" d="M266.73,112.16c-1.53-2.58-1.86-6.3-1.07-9.32.84-3.2,3.02-5.92,7.07-5.14,3.73.72,7.39,1.93,11.16,2.42,1.96.26,7.31-.54,7.99,2.03.5,1.91-1.35,4.8-3.56,7.26s-4.8,4.67-6.21,5.39c-2.18,1.11-5.33,1.24-8.24.95s-5.71-1.19-7.13-3.6Z"/>
    <g class="st1">
      <path class="st13" d="M293.66,96.96c-2.11,1.77-4.39,3.28-6.93,4.69-2.54,1.4-5.41,2.88-8.61,2.92-3.24.04-6.34-1.44-9.1-2.87-2.77-1.43-5.47-2.78-7.64-4.74"/>
    </g>
  </g>
  <path class="st10" d="M242.81,15.28c2.46-1.97,5.38-3.12,8.03-4.47,2.46-1.25,4.96-2.11,7.62-2.7s5.29-1.21,8.05-1.3c2.71-.09,5.43.21,8.17.43,2.73.23,5.47.38,8.15.76,3.19.46,6.42,1.18,9.68,2.01s6.29,1.87,9.39,3.05c3.08,1.18,6.06,2.58,8.95,4.14s5.58,3.48,8.17,5.49,5.06,4.18,7.2,6.66,4.42,4.92,5.95,7.88c1.48,2.86,2.16,6.11,2.94,9.42.73,3.12,1.22,6.25,1.28,9.46s-.17,6.39-.61,9.56c-.22,1.57-.12,3.35-.99,4.67-.78,1.18-2.17,1.99-3.45,2.61-2.42,1.17-5.41,1.97-8.29,1.88s-5.58-1.44-7.81-3.03c-3.02-2.15-5.42-4.98-7.57-8-1.81-2.55-3.36-5.29-5.18-7.85s-3.65-5.09-5.47-7.64-3.81-5.05-5.63-7.61c-1.95,2.31-4.05,4.58-6.3,6.59s-4.55,4.01-7.06,5.69-5.18,3.16-7.89,4.48-5.58,2.33-8.45,3.28-5.85,1.45-8.81,2.01c-2.67.5-6.21,1.31-10.01,1.42-3.37.09-6.92-.06-10.11-.75-3.62-.79-6.82-2.31-8.82-4.72-1.88-2.26-2.47-5.37-1.67-9.6.6-3.18,1.28-6.5,2.63-9.71,1.28-3.03,3.25-5.81,5.08-8.69s3.57-5.71,5.78-8.22,4.5-5.16,7.07-7.22Z"/>
  <path class="st21" d="M323.6,77.87c-1.41,4.74-3.06,9.36-4.31,14.16s-2.41,9.99-3.91,14.87c-.55,1.8,2.26,2.57,2.82.78,1.5-4.89,2.62-9.92,3.91-14.87s2.9-9.41,4.31-14.16c.54-1.81-2.28-2.58-2.82-.78h0Z"/>
  <path class="st21" d="M229.04,76.84c-2.45-.96-4.92-1.84-7.43-2.63s-4.81-1.64-7.29-2.22c-1.83-.43-2.61,2.39-.78,2.82,2.48.58,4.87,1.46,7.29,2.22s4.98,1.67,7.43,2.63c.73.29,1.6-.32,1.8-1.02.23-.83-.28-1.51-1.02-1.8h0Z"/>
  <path class="st11" d="M273.16,78.94c.05,2.25-1.83,4.11-4.04,4.17-2.22.05-4.24-1.72-4.29-3.97-.05-2.25,1.88-4.06,4.1-4.11,2.22-.05,4.18,1.67,4.23,3.91Z"/>
  <path class="st11" d="M303.83,83.79c.05,2.25-1.92,4.29-4.14,4.34s-4.17-1.9-4.23-4.14c-.05-2.25,1.81-4.25,4.03-4.3,2.22-.05,4.28,1.86,4.34,4.1Z"/>
  <path class="st11" d="M275.13,65.56c-3.8-2.04-8.33-2.62-12.31-.72-.71.34-.9,1.36-.52,2,.43.73,1.28.86,2,.52,2.94-1.4,6.5-.81,9.36.72.69.37,1.59.17,2-.52s.17-1.62-.52-2h0Z"/>
  <path class="st11" d="M307.67,73.15c-2.28-3.74-7.05-4.4-11.03-3.85-.76.11-1.24,1.11-1.02,1.8.27.83.98,1.13,1.8,1.02-.34.05-.04,0,.03,0,.1-.01.2-.02.3-.03.21-.02.41-.03.62-.04.42-.02.84-.02,1.26,0,.19,0,.38.02.57.04.11,0,.21.02.32.03.29.02-.12-.02.06,0,.42.07.84.15,1.25.26.18.05.36.1.54.16.1.03.2.07.3.1.12.04.25.1.06.02.38.16.74.35,1.08.58.08.05.16.12.25.17.18.1-.23-.21.04.03.15.13.31.27.45.41.13.13.25.27.37.41.1.13-.11-.18.03.05.07.11.14.21.2.32.41.67,1.31.93,2,.52s.94-1.32.52-2h0Z"/>
  <path class="st4" d="M216.29,137.01c-.09-1.3-.23-2.53.17-3.54,1.08-2.68,3.29-5.53,5.89-7.96,2.57-2.41,5.72-4.26,7.78-6.14.73-.66,1.38-1.51,2.33-1.79,2.05-.62,4.2.79,5.85,2.16,2.21,1.84,4.45,3.74,6.58,5.79s3.87,4.36,5.83,6.53,4,4.26,5.78,6.57c1.79,2.32,3.43,4.79,5,7.23,2.9-1.91,5.56-3.99,7.89-6.35,2.33-2.36,4.46-4.91,7.09-7.14,2.42-2.05,4.1.3,5.32,4.24.77,2.48,1.62,5.49,2.02,8.33.56,3.93.47,7.5.51,8.54.09,2.13-.23,4.25-1.62,5.86-2.05,2.39-5.65,2.38-8.61,1.32-4.14-1.48-7.97-3.97-11.07-7.09-.51-.52-.96-1.32-1.67-1.43-.59-.09-1.17.35-1.72.58-3.43,1.44-6.83,2.95-10.25,4.38-4.28,1.79-8.79,3.23-13.42,2.91-2.92-.2-5.7-1-8.13-2.62-2.4-1.61-4.68-3.63-6.28-6.03-1.11-1.67-2.29-4.27-3.41-6.93-1.04-2.47-1.7-5.11-1.86-7.42Z"/>
  <path class="st11" d="M282.02,144.89c.36,3.4.14,6.8-.33,10.18-.38,2.69-.68,6.52-4.36,5.92-2.67-.43-5.6-2.39-7.71-4-1.28-.98-2.44-2.13-3.55-3.28-1.08-1.12-2.08-2.47-3.33-3.4-2.61-1.93-5.3.53-7.62,1.76-2.85,1.51-5.78,2.92-8.73,4.22-3.02,1.33-6.49,3.03-9.84,3.16-3.02.11-5.55-1.55-7.59-3.63-2.3-2.32-4.37-5.1-6.09-7.87-2.03-3.27-3.06-6.9-4.11-10.57-.52-1.8-3.34-1.04-2.82.78,1.01,3.53,2,7.09,3.83,10.3,1.6,2.81,3.68,5.44,5.76,7.91,1.97,2.35,4.38,4.47,7.33,5.46,3.22,1.09,6.53.28,9.62-.84,3.54-1.29,6.95-2.86,10.33-4.5,1.55-.75,3.09-1.51,4.59-2.34.8-.44,1.56-.94,2.35-1.37,1.18-.64,1.86.47,2.64,1.28,2.41,2.54,4.81,4.99,7.81,6.83,2.51,1.55,5.6,3.35,8.67,3.04,3.56-.37,4.9-3.47,5.42-6.6.67-4.11,1.1-8.29.66-12.45-.19-1.85-3.12-1.87-2.92,0h0Z"/>
  <path class="st13" d="M262.36,177.6c-3.49.6-5.2-2.57-5.25-5.41-.05-2.98,1.86-6.04,5.69-4.07,3.51,1.81,3.81,8.75-.44,9.49Z"/>
  <path class="st13" d="M260.67,221.59c-3.49.6-5.67-2.57-5.72-5.42-.05-2.98,2-5.41,5.83-3.45,3.51,1.81,4.14,8.13-.11,8.86Z"/>
  <path class="st13" d="M254.5,335.09c-3.49.6-5.24-2.25-5.29-5.09-.05-2.98,1.89-5.92,5.72-3.95,3.51,1.81,3.82,8.31-.43,9.04Z"/>
  <g>
    <path class="st9" d="M129.95,662.79c.06,3.08-.18,6.17-.07,9.25s.57,6.15.67,9.23.32,6.16.33,9.25c.01,3.01-.45,6.06-.44,9.12s.33,6.06.35,9.11-.14,6.07-.09,9.11.12,6.07.21,9.11-.08,6.09.07,9.12.77,6.05,1.01,9.07c.24,3.04.51,6.07.86,9.07s.36,6.1.83,9.09c.59,3.83,1.34,7.33,2.81,9.93,1.6,2.83,4.32,4.7,8.64,5.07,4.15.36,8.33.28,12.48.6,3.05.23,6.07.97,9.12,1.19s6.11.32,9.17.52c3.05.19,6.1.52,9.16.69,3.06.17,6.14-.19,9.2-.04,3.06.15,6.09.71,9.15.84,3.06.13,6.11.45,9.17.56s6.14-.51,9.2-.42c3.06.09,6.11.61,9.17.68s6.13-.28,9.19-.23c3.06.05,6.12.45,9.18.48,3.06.02,6.12.25,9.18.26s6.12-.13,9.18-.14c3.79-.02,10.02,1.49,12.64-2.07,1.92-2.61,1.15-6.85-.65-9.35-1.49-2.08-3.66-3.66-6.01-4.91-2.34-1.24-4.87-2.19-7.04-3.29-2.68-1.36-5.28-2.87-7.96-4.23s-5.35-2.73-8.03-4.09-5.51-2.41-8.19-3.77c-2.68-1.36-5.38-2.67-8.06-4.03-2.92-1.48-5.07-2.94-6.56-4.62-1.81-2.04-2.36-4.48-2.84-7.37-.37-2.27-.45-4.84-.47-7.97-.02-3.01-.2-6.02-.18-9.03.02-3.01-.17-6.02-.11-9.03.06-3.01-.1-6.03,0-9.04s.25-6.02.38-9.03c.13-3.01.67-6,.84-9s.25-6.02.46-9.02c.21-3,.6-5.99.85-8.99s.42-6.04.7-9.04c-3.25.22-6.53.63-9.78.79s-6.53-.08-9.79.02c-3.26.1-6.51.17-9.77.23s-6.51.31-9.77.33-6.52.3-9.78.29c-3.26-.02-6.52-.08-9.78-.11-3.26-.04-6.51-.65-9.77-.7-3.26-.05-6.52.05-9.78,0-3.26-.05-6.52-.33-9.77-.37-3.26-.04-6.36.51-9.61.49-.01,2.23.09,4.21.14,6.43Z"/>
    <g class="st2">
      <path class="st13" d="M138.45,781.61c2.94.08,5.89.19,8.83.34,2.94.15,5.87.43,8.81.64,2.93.21,5.86.55,8.79.82,2.93.27,5.88.36,8.81.67,2.93.31,5.86.56,8.78.91,2.92.35,5.81.97,8.73,1.35,2.92.38,5.8,1.01,8.72,1.41,2.91.4,5.9.34,8.81.76,2.91.42,5.76,1.3,8.67,1.73,3.34.49,6.74.54,10.08,1.03,3.34.49,6.67,1.01,10.01,1.49,3.34.48,6.68.93,10.02,1.39,3.34.46,6.68.97,10.02,1.39,2.93.37,5.81.94,8.67,1.39,2.91.46,5.73,1.41,8.62,1.72s5.86.34,8.8.26c2.86-.08,5.69-.83,8.64-1.49,2.78-.62,5.56-1.57,7.05-4,2.07-3.39,2.42-5.94,1.47-8.23s-3.14-4.31-6.41-5.73c-2.43-1.05-5.28-2.16-8.49-2.8-2.77-.56-5.79-.96-8.86-1.28s-5.98,0-8.95-.14c-3.06-.14-6.07-.09-8.93-.11-3.25-.03-6.29-.46-8.93-.43-4.22.06-7.43.23-8.92.16-3.22-.14-6.43-.52-9.64-.67s-6.45.02-9.67-.15c-3.22-.17-6.42-.7-9.63-.88-3.22-.19-6.45-.11-9.66-.31-3.22-.2-6.42-.64-9.63-.85-3.21-.22-6.46,0-9.67-.24s-6.42-.57-9.63-.82c-3.21-.25-6.43-.46-9.64-.72-3.21-.26-6.42-.59-9.63-.87-3.21-.28-6.44-.4-9.64-.69-3.21-.29-6.42-.54-9.63-.85-3.53-.34-8-.53-9.43,2.7-1.86,4.19-.17,7.23,2.75,8.98,2.98,1.79,7.29,2.04,9.96,2.11Z"/>
    </g>
  </g>
  <path class="st13" d="M448.05,219.35c-.8-.88-2.19-1.19-3.67-1.99-2.91-1.55-5.86-3.02-8.6-4.84-2.73-1.82-5.09-4.18-7.7-6.17s-5.59-3.53-8.15-5.59c-.73-.59-3.7-3.33-7.39-6.38-2.43-2.01-5.16-4.15-7.62-6.08-4.13-3.24-7.31-5.79-7.76-5.36-2.5,2.36-5.13,4.59-7.67,6.91-2.54,2.32-5.03,4.7-7.63,6.95-2.6,2.25-5.3,4.39-7.99,6.55-2.16,1.73-4.73,3.27-7.46,2.78-1.59-.29-2.94-1.17-4.2-2.19-2.66-2.17-5.47-4.19-8.02-6.51-2.54-2.32-4.66-5.09-7.12-7.5-2.46-2.41-5.08-4.66-7.48-7.12-2.42-2.47-4.88-4.88-7.27-7.33-2.24-2.3-4.18-4.85-6.05-7.45-1.87-2.59-3.72-5.2-5.5-7.86-1.78-2.66-3.39-5.45-5.37-7.95-1.98-2.49-4.08-4.93-6.55-7.04-1.22-1.04-4.52-3.09-8.32-5.15-2.82-1.53-5.98-3.05-8.89-4.08-4.13-1.46-7.94-1.95-9.45-.16-.63.75-.41,1.91-.49,2.88-.26,3.02-1.05,6-1.28,9.04s-.18,6.07-.4,9.11-.06,6.09-.29,9.12-.8,6.03-1.07,9.06-.88,6.02-1.22,9.03-.32,6.09-.75,9.09c-.44,3.01-1.01,6-1.57,8.98-.56,3.03-.83,6.17-1.46,9.26s-1.66,6.01-2.36,9.08c-.69,3.03-1.02,6.18-1.8,9.21s-2.15,5.89-3.03,8.89-1.62,6.05-2.62,9c-1.02,2.98-2.16,5.88-3.31,8.76s-2.36,6.06-3.67,8.86c-1.72-2.77-3.2-5.93-4.67-8.84s-2.99-5.8-4.25-8.82c-1.25-3.01-2.52-6.02-3.59-9.12-1.06-3.08-1.82-6.27-2.73-9.41s-1.67-6.31-2.45-9.48c-.78-3.17-1.32-6.4-1.99-9.59s-1.47-6.37-2.07-9.57c-.61-3.23-1.58-6.37-2.14-9.57-.5-2.84-1.01-5.68-1.45-8.52-.45-2.85-.32-5.78-.72-8.63s-1.23-5.65-1.6-8.5c-.37-2.86-.29-5.77-.64-8.63s-.92-5.69-1.24-8.55c-.38-3.37-1.24-6.83-1.69-10.34s-.66-7.08-.5-10.49c.16-3.58,2.83-10.31-4.38-8.04-2.6.82-5.03,2.08-7.43,3.36s-4.79,2.54-6.93,4.23c-3.77.52-7.53,1.23-11.56,2.05-2.56.52-5.08,1.14-7.59,1.87s-5.13,1.14-7.57,2.09-4.84,2.03-7.17,3.21c-2.91,1.48-5.78,3.07-8.42,4.91s-5.22,3.92-7.62,6.09c-2.4,2.17-4.49,4.69-6.62,7.14-2.12,2.44-4.21,4.94-6.05,7.61-1.83,2.66-3.24,5.6-4.79,8.45-1.46,2.69-3.15,5.26-4.39,8.05s-1.89,5.81-2.93,8.69-2.16,5.7-3.03,8.63-1.6,5.88-2.33,8.85-1.9,5.83-2.52,8.82c-.61,2.99-.88,6.06-1.41,9.06-.52,2.98-.91,5.98-1.37,8.97-.46,2.99-1.01,5.96-1.41,8.96s-.63,6.01-.97,9.02-.77,6-1.07,9.01-.78,6-1.04,9.01-.53,6.03-.74,9.04-.41,6.03-.59,9.05,0,6.05-.15,9.07-.14,6.04-.27,9.07-.18,6.04-.28,9.06c-.1,3.02-.09,6.04-.18,9.07s-.75,6.03-.83,9.05-.19,6.04-.25,9.07c-.07,3.07.11,6.15.03,9.23s-.13,6.14-.23,9.22-.25,6.14-.35,9.22.24,6.15.15,9.23-.53,6.13-.62,9.21.17,6.16.1,9.23-.13,6.15-.18,9.22-.08,6.15-.1,9.23-.43,6.15-.42,9.23.03,6.16.07,9.23-.17,6.16-.08,9.24.45,6.15.59,9.22.19,6.16.39,9.22.97,6.1,1.23,9.16-.02,6.18.3,9.24.71,6.12,1.11,9.17c.09.66.63,1.13,1.07,1.63.63.71,1.45.73,2.4.73,3.16,0,6.32.54,9.49.54,3.16,0,6.32-.45,9.48-.46,3.16,0,6.32.04,9.48.03,3.16-.01,6.32.19,9.49.17s6.32.11,9.49.09c3.16-.02,6.32-.21,9.48-.23,3.16-.02,6.32-.35,9.48-.37s6.32.1,9.49.07,6.32-.32,9.48-.36c2.98-.03,5.97,0,8.95-.1s5.95-.31,8.92-.62c2.97-.31,6.01-.2,8.93-.86,1.29-.29,2.66-.88,3.55-1.87.8-.89,1.09-2.16,1.33-3.33.77-3.75,1.59-7.49,2.36-11.24s1.27-7.85,2.04-11.6c1.15,3,2.49,6.31,3.36,9.41s1.7,6.23,2.27,9.39c.58,3.16.93,6.15,1.21,9.35,3.33.12,6.43.72,9.76.8s6.67.06,10,.09c3.33.02,6.67-.3,10-.32,3.33-.02,6.66-.24,9.99-.31,3.33-.07,6.66-.01,10-.13s6.66-.16,9.99-.33c3.33-.17,6.67-.08,10-.3,1.37-.09,2.89-.5,3.76-1.56.72-.88.39-2.12.4-3.25.02-3.11.58-6.19.65-9.27s-.1-6.19-.03-9.28.11-6.17.14-9.27.25-6.17.19-9.27c-.06-3.07-.53-6.14-.73-9.24-.21-3.29-.52-6.58-.81-9.89-.29-3.29-.61-6.59-.91-9.89s-.53-6.6-.79-9.9c-.27-3.3-.45-6.61-.62-9.91s-.17-6.63-.17-9.93c-.13-3.33-.53-6.65-.64-9.99-.11-3.33.14-6.68.06-10.01s-.5-6.66-.57-9.99.06-6.67,0-10-.19-6.67-.24-10c-.04-2.93-.05-5.87-.08-8.8s.34-5.87.31-8.8-.44-5.86-.52-8.79c-.13-4.38-1.67-9.35-.91-13.73.18-1.06.52-2.19,1.05-3.17,2.93.48,5.86,1.06,8.74,1.65,2.9.59,5.7,1.6,8.58,2.24,2.89.65,5.85.89,8.73,1.51s5.78,1.18,8.68,1.71c2.9.53,5.83.79,8.76,1.16,2.91.37,5.8,1,8.77,1.13,2.91.13,5.87.29,8.86.13,3.35-.17,6.72-.68,10-1.39,3.3-.71,6.42-1.94,9.38-3.55,2.75-1.5,5.32-3.22,7.55-5.38,2.21-2.14,4-4.7,5.87-7.21s3.49-5.15,5.18-7.73c1.88-2.87,4.16-5.49,6.02-8.37,1.55-2.41,2.93-4.92,4.46-7.34,1.53-2.42,2.94-4.91,4.46-7.34s3.3-4.69,4.81-7.12,2.72-5.04,4.21-7.49c1.32-2.17,3.17-4.13,4.57-6.36,1.4-2.24,2.34-4.73,3.32-7.08.53-1.26,1.62-3.37,1.52-4.72-.07-.93-.27-1.65-.7-2.13Z"/>
  <path class="st8" d="M236.58,354.57c.12,2.98.45,5.95.54,8.94s-.01,5.76.07,8.64c.17,5.98.23,11.95.47,17.93.13,3.09.51,6.17.63,9.26.13,3.1-.12,6.19-.05,9.29.06,2.99.33,5.96.48,8.95s.12,6.19.18,9.28c.07,3.42.52,6.81.71,10.22s.1,7.04.21,10.56c.06,1.87,2.98,1.88,2.92,0-.1-3.09-.05-6.19-.16-9.28-.1-2.99-.51-5.96-.67-8.94s-.11-6.19-.18-9.28-.31-5.96-.46-8.95-.04-6.18-.01-9.28-.31-6.18-.53-9.27c-.43-5.98-.51-12.02-.57-18.01-.03-3.29-.05-6.59-.09-9.88s-.43-6.78-.56-10.17c-.08-1.87-3-1.88-2.92,0h0Z"/>
  <path class="st8" d="M297.71,143.41c.49,2.51,1.37,4.9,2.12,7.34.76,2.45,1.3,4.96,1.94,7.44,1.39,5.46,3.25,10.78,3.83,16.41s-.33,10.38-2.97,15.18c-2.57,4.66-5.61,8.97-8.68,13.31-1.36,1.92-3.08,3.91-3.68,6.23-.56,2.15.19,4.36,1.22,6.25,2.44,4.46,6.58,8.54,6.8,13.92.1,2.61-.83,5.2-1.75,7.6-.93,2.43-2.08,4.79-3.47,6.98-1.37,2.15-2.99,4.13-4.44,6.23s-2.9,4.41-4.47,6.54c-7.08,9.65-15.62,18.38-24.9,25.95-1.46,1.19.62,3.24,2.07,2.07,8.39-6.84,16.28-14.67,22.87-23.26,3.22-4.2,6.06-8.65,9.2-12.91s5.53-8.84,7.01-13.88c.71-2.43,1.03-4.93.55-7.43-.48-2.48-1.69-4.82-2.91-7.01s-2.98-4.23-4.17-6.52c-.59-1.13-1.11-2.46-.79-3.75s1.21-2.42,1.95-3.49c5.88-8.46,13.49-17.21,13.68-28.04.11-6.21-1.58-12.36-3.31-18.27-.86-2.95-1.48-5.95-2.32-8.9-.83-2.94-1.96-5.78-2.55-8.78-.36-1.84-3.18-1.06-2.82.78h0Z"/>
  <g>
    <path class="st23" d="M172.86,262.79c.59,2.66.66,5.48,1.08,8.25s1.1,5.43,1.4,8.19.2,5.56.43,8.3.4,5.56.61,8.28c.13,1.73.71,3.66-.12,5.18s-3.48,2.41-4.85,1.34c.15-3.07-.07-5.92-.6-8.58-.58-2.89-1-5.75-2.17-8.31s-2.87-4.97-4.42-7.39-3.07-4.81-4.71-7.19-3.49-4.53-4.98-7.01c-1.45-2.42-2.97-4.89-4.1-7.59-.96-2.28-1.65-4.97-1.18-7.4.63-3.29,3.13-4.24,5.7-4.31,2.5-.06,5.3.81,7.31,2.07,2.66,1.66,5.24,4.02,7,6.92s2.95,6.26,3.61,9.24Z"/>
    <path class="st23" d="M196.27,265.85c-2.22,3.13-4.77,5.85-7.51,8.4-2.75,2.57-5.35,5.25-7.87,8.07-.73.82-2.5,4.04-3.78,7.51-1.49,4.04-2.65,8.36-1.88,8.34-1.38.04-2.77-.53-3.98-1.19.16-3.02.22-6.03.4-9.02s.65-6.01.94-8.98.85-5.97,1.35-8.91c.51-3,.74-6.02,1.54-8.89.81-2.91,2.06-5.65,3.27-8.4s2.19-5.63,3.89-8.16c1.64-2.43,3.79-4.58,5.97-6.8,2.02-2.06,4.49-3.74,7.05-5.59,1.45-1.05,2.96-2.09,4.61-1.41,1.56.64,2.1,2.27,2.44,3.91.55,2.68,1.26,5.37,1.24,8.1s-.63,5.45-1.19,8.12-1.31,5.31-2.4,7.82c-1.08,2.51-2.53,4.83-4.11,7.06Z"/>
    <path class="st23" d="M241.11,266.24c.49,3.28.35,6.65.69,9.95.34,3.3,1.28,6.56,1.46,9.88.19,3.32-.07,6.65-.04,9.98,0,.34-.09.81.1,1.09.2.29.72.32,1.07.38,1.97.34,4.11-1.18,4.79-3.06.67-1.88-.02-4.02-.27-6-.46-3.65-1-7.28-1.49-10.92s-.78-7.31-1.32-10.94"/>
    <path class="st23" d="M260.2,259.13c-5.06-.81-4.56,1.58-8.74,2.98-3.05,1.02-5.95-.09-8.67-.6-2.56-.48-5.29-.91-7.96,2.15-3,3.43-3.51,8.69-2.68,13.17.23,1.22.86,2.32,1.41,3.43,1.92,3.87,6.07,5.98,10.27,7,4.2,1.01,8.71.97,12.74,2.5,3.05,1.16,5.79,3.31,9.04,3.51.46.03.86-.05,1.25-.28.51-.29.59-.84.8-1.39,1.13-2.86,2.06-5.78,2.4-8.83.34-3.06.62-6.19.18-9.23s-1.82-5.87-3.04-8.69c-.62-1.43-1.12-2.94-2.32-3.93-1.32-1.08-3.01-1.51-4.69-1.79Z"/>
    <path class="st23" d="M254.8,258.42c1.22-4.4.49-9.67-2.49-13.19-2.28-2.7-9.48-3.7-12.7-3.27-3.9.52-7.26,3.05-9.42,6.33-1.18,1.78-2.08,3.68-2.81,5.69-1.59,4.34-3.19,8.67-4.78,13.01-.19.51-.21.97-.1,1.5.21,1.02,1.18,1.27,2.2,1.49,2.62.56,5.33.75,7.89-.05,3.57-1.12,6.7-3.79,10.42-4.24,2.42-.3,5.06.56,7.29-.42,2.59-1.14,3.76-4.11,4.51-6.83Z"/>
    <path class="st12" d="M216.02,273.88c1-1.44,1.95-3.01,1.89-4.74-.08-2.43-1.68-5.23-3.77-7.2-2.11-1.99-5-3.23-7.43-3.06-.9.06-1.83.36-2.68.05-5.13-1.88-2.45-4.5-8.77-3.84-2.59.27-5.41,1.01-8.15,1.94-2.74.93-5.14,2.25-7,4.24-2.3,2.47-4.38,5.06-6.21,7.9s-3.68,5.66-4.98,8.77c-.87,2.08-1.63,5.13.12,6.54,1.06.85,2.77.7,4.12.61,3.02-.2,6.07-.21,9.12-.32,3.04-.11,6.1-.34,9.11-.62,3.04-.28,6.07-.72,9.02-1.42,2.93-.69,5.78-1.76,8.57-3.12,2.5-1.22,5.3-3.25,7.03-5.73Z"/>
    <path class="st12" d="M241.91,276.63c-.49-3.18-.85-6.56-2.25-9.14-1.61-2.97-4.14-5.12-7.49-5.28-1.94-.09-6.32,1.73-7.9,2.67-.21.13-6.32,5.59-4.12,5.58-4.32.02-10.29-1.71-12.96,2.4-2.6,4-1.64,6.87.37,8.89s5.57,3.51,8.75,3.84c3.57.37,7.13,1.65,10.65,3,3.55,1.36,7.07,2.67,10.73,2.42,1.84-.13,3.53-.99,4.31-2.66.34-.73.68-1.4.71-2.2.1-2.43-.24-5.92-.79-9.53Z"/>
    <path class="st12" d="M223.26,238.42c-1.1-3.51-3.37-5.4-6.2-6.53s-5.86-1.23-9.21-.75c-3.1.44-6.15,1.44-8.99,2.7-3.26,1.45-6.43,2.77-8.27,4.61-.67.66-1.2,1.6-1.3,2.53-.18,1.54,1.35,2.71,2.86,3.09,1.51.38,3.05.47,4.61.47,4.29,0,8.36,1.54,12.47,2.76,4.11,1.22,9.07,1.87,12.2-1.06,2.05-1.92,2.7-5.13,1.86-7.81Z"/>
    <path class="st12" d="M209.56,240.49c.34,3.25.81,6.5,1,9.77.19,3.27-.03,6.55.01,9.82s.3,6.54.19,9.81-.35,6.54-.61,9.8c-.26,3.26-.64,6.51-1.05,9.76s-.59,6.53-1.14,9.76-1.64,6.35-2.34,9.54c-.12.54-.11,1.16.07,1.68.38,1.1,1.89,1.16,2.89.57s1.83-1.47,2.28-2.54c1.22-2.9,2.16-5.91,2.87-8.96s.89-6.18,1.21-9.31.7-6.22.77-9.35.26-6.28.2-9.39c-.08-3.58-.46-7.15-.62-10.72s-.17-7.16-.41-10.73-1.14-7.09-1.47-10.65"/>
    <path class="st0" d="M221.65,294.82c.02,2.8.19,5.59.26,8.36.07,2.78.38,5.56.74,8.33.03.2-.03.32-.15.48-.13.17-.25.31-.47.33-3.47.18-6.95.14-10.42.18-3.47.04-6.76-.06-10.23-.15.06-3.18-.37-6.17-.31-9.35.04-2.3-.66-7.31.38-9.33.83-1.62,4.58-1.94,8.37-2.07,3.45-.12,7.05.16,8.81.12.95-.02,1.86-.05,2.53.62.66.65.48,1.55.49,2.48Z"/>
    <path class="st0" d="M187.14,294.82c.02,2.8-.19,5.59-.11,8.37.07,2.78.06,5.59.42,8.37.03.2.59.58.47.74-.13.17-.61.33-.82.34-3.47.18-6.96-.05-10.44,0-3.47.04-6.83-.11-10.3-.2.06-3.18.28-6.23.34-9.41.04-2.3-1.18-7.29-.15-9.31.83-1.62,4.51-2.17,8.3-2.3,3.45-.12,7.06.25,8.82.21.95-.02,1.76.17,2.43.84.66.65,1.04,1.44,1.05,2.37Z"/>
    <path class="st0" d="M253.29,294.82c.02,2.8.24,5.59.31,8.36s.12,5.58.48,8.35c.03.2.25.41.13.57-.13.17-.38.4-.59.41-3.47.18-6.96-.02-10.43.03-3.47.04-6.81-.05-10.28-.14.06-3.18-.15-6.22-.09-9.4.04-2.3-.51-7.15.52-9.18.83-1.62,4.27-2.11,8.06-2.24,3.45-.12,7.05.03,8.81-.01.95-.02,2.11-.15,2.78.52.66.65.3,1.8.3,2.72Z"/>
    <path class="st19" d="M265.39,312.01c-4.66,0-4.66-.13-9.32-.13-4.66,0-4.66.05-9.32.05-4.66,0-4.66-.33-9.33-.33-4.66,0-4.66.52-9.32.52-4.66,0-4.66-.24-9.33-.24s-4.66.4-9.33.4c-4.66,0-4.66-.13-9.33-.13s-4.66-.39-9.33-.39c-4.66,0-4.66-.18-9.33-.18-4.66,0-4.66.09-9.33.09-4.67,0-4.67.46-9.33.46-4.67,0-4.67-.02-9.33-.02-4.67,0-4.67-.28-9.33-.28-4.67,0-4.67.39-9.33.39s-4.67-.52-9.33-.52-4.67.29-9.33.29c-4.66,0-4.66.25-9.33.25-4.67,0-4.67-.34-9.33-.34-4.67,0-4.67-.25-9.33-.25-4.67,0-4.67.35-9.33.35-4.67,0-4.67.24-9.33.24s-4.66-.46-9.33-.46c-4.67,0-4.67.28-9.34.28-4.67,0-4.67-.14-9.34-.14-4.67,0-4.67.39-9.34.39-2.46,0-4.48-2.36-4.48-4.82,0-1.33.11-1.33.11-2.66,0-2.46,1.91-4.22,4.37-4.22,4.66,0,4.66-.45,9.32-.45s4.66.43,9.32.43,4.66-.18,9.33-.18,4.66.02,9.32.02,4.66-.17,9.33-.17,4.66-.01,9.33-.01,4.66.09,9.33.09,4.66.15,9.33.15,4.66-.07,9.33-.07,4.66-.16,9.33-.16,4.67.33,9.33.33,4.67-.31,9.33-.31,4.67.12,9.33.12,4.67.02,9.33.02,4.67.09,9.33.09,4.67.08,9.33.08,4.66-.37,9.33-.37,4.67.22,9.33.22,4.67-.23,9.33-.23,4.67.04,9.33.04,4.67.42,9.33.42,4.66-.31,9.33-.31,4.67,0,9.34,0,4.67.07,9.34.07,4.67.27,9.34.27c2.46,0,4.76,1.67,4.76,4.14,0,1.33.03,1.33.03,2.66,0,2.46-2.32,4.51-4.78,4.51Z"/>
    <path class="st19" d="M260.04,370.51c-4.63,0-4.63.29-9.27.29-4.64,0-4.64-.03-9.27-.03-4.63,0-4.63.13-9.27.13s-4.64.03-9.27.03c-4.63,0-4.63-.03-9.27-.03-4.64,0-4.64-.36-9.27-.36s-4.63.04-9.27.04c-4.64,0-4.64.52-9.27.52-4.64,0-4.64-.44-9.27-.44-4.64,0-4.64.17-9.27.17-4.64,0-4.64.27-9.27.27-4.64,0-4.64-.57-9.27-.57-4.64,0-4.64.18-9.27.18-4.64,0-4.64.17-9.27.17-4.64,0-4.64.25-9.28.25-4.63,0-4.63-.27-9.27-.27-4.64,0-4.64.28-9.27.28-4.64,0-4.64-.68-9.27-.68-4.64,0-4.64.59-9.27.59-4.64,0-4.64.04-9.28.04q-4.64,0-9.27,0c-4.64,0-4.64-.15-9.28-.15-4.64,0-4.64-.21-9.29-.21s-4.64.37-9.29.37c-2.49,0-4.68-2.29-4.68-4.78,0-4.58.44-4.58.44-9.16s-.09-4.58-.09-9.16-.45-4.58-.45-9.16.24-4.58.24-9.17-.06-4.59-.06-9.17-.27-4.59-.27-9.17c0-2.49,2.38-4.44,4.86-4.44,4.63,0,4.63-.31,9.27-.31s4.64.36,9.27.36,4.63-.44,9.27-.44,4.64.07,9.27.07,4.63.27,9.27.27,4.64.13,9.27.13,4.63-.13,9.27-.13,4.64-.27,9.27-.27,4.64.51,9.27.51,4.64-.27,9.27-.27,4.64-.1,9.27-.1,4.64-.12,9.27-.12,4.64.35,9.27.35,4.64.18,9.27.18,4.64-.29,9.28-.29,4.63-.16,9.27-.16,4.64.36,9.27.36,4.64-.44,9.27-.44,4.64.23,9.27.23,4.64.34,9.28.34,4.64-.07,9.27-.07,4.64-.19,9.28-.19,4.64.04,9.29.04,4.64-.21,9.29-.21c2.49,0,4.17,2.13,4.17,4.62,0,4.58.69,4.58.69,9.16s-.52,4.58-.52,9.16c0,4.58.4,4.58.4,9.16,0,4.58-.29,4.58-.29,9.17s-.29,4.59-.29,9.17c0,4.59.09,4.59.09,9.17,0,2.49-1.76,4.2-4.25,4.2Z"/>
    <path class="st11" d="M39.25,313.89c5.16.07,10.24.15,15.39-.19,3.66-.24,7.35-.18,11.01-.22,3.73-.04,7.41.4,11.13.45,3.79.06,7.54-.63,11.33-.48,3.8.15,7.5.69,11.32.43,3.72-.25,7.31-.45,11.04-.15,3.83.31,7.6.25,11.44.15,4.04-.1,8.07.11,12.1.14,4.03.02,8.06-.36,12.09-.46,7.97-.18,15.91-.26,23.88.04,3.91.15,7.85.36,11.77.4,3.81.04,7.58-.56,11.4-.52,7.46.09,15.01.78,22.45.18,4.22-.34,8.31-.12,12.53.05,4.15.17,8.34.2,12.5.22,6.04.02,12.08.03,18.12-.02,1.88-.01,1.88-2.93,0-2.92-5.13.04-10.26.1-15.39.04-3.67-.04-7.34-.11-11.02-.17-3.72-.06-7.42-.36-11.14-.4-3.79-.04-7.54.57-11.33.5-3.77-.06-7.55-.19-11.33-.28-3.7-.09-7.36-.2-11.05.11-3.85.32-7.6.21-11.45.04-8.05-.37-16.15-.56-24.21-.38-7.97.18-15.9.69-23.88.5-3.92-.09-7.83.12-11.76.14-3.81.02-7.58-.62-11.39-.5-3.81.12-7.55.63-11.37.35-3.74-.28-7.32-.5-11.07-.21-4.23.33-8.3.08-12.52-.13-4.14-.21-8.35-.04-12.49.05-3.95.08-7.86.49-11.82.45-2.1-.02-4.2-.11-6.31-.14-1.88-.03-1.88,2.89,0,2.92h0Z"/>
    <path class="st15" d="M39.25,338.1c5.14-.09,10.25-.22,15.39-.13,3.69.06,7.33-.16,11.01-.31,3.75-.15,7.4.56,11.13.64,3.79.09,7.54-.67,11.33-.61,3.78.05,7.54.23,11.32.18,7.71-.11,15.41.2,23.12.32,3.86.06,7.65-.48,11.5-.56,4.02-.08,8.03.5,12.05.5,7.97,0,15.92.24,23.88-.1,3.91-.17,7.86-.34,11.77-.38,3.81-.04,7.59.56,11.4.57,7.49.01,14.96-.12,22.45-.38,4.17-.15,8.35-.16,12.53-.2,4.17-.04,8.33.37,12.5.31,3.95-.06,7.87-.35,11.82-.3,2.1.03,4.2.13,6.31.16,1.88.03,1.88-2.89,0-2.92-5.15-.08-10.24-.18-15.39.05-3.69.16-7.33-.07-11.02-.2-3.71-.12-7.43.03-11.14.05-7.56.03-15.1.56-22.66.53-3.69-.01-7.37.04-11.05-.28-3.85-.34-7.6-.24-11.45-.08-4.03.17-8.08.36-12.11.41s-8.06-.16-12.1-.16c-4.04,0-8.07.09-12.1-.23-3.85-.3-7.52-.17-11.36.15-7.82.65-15.73-.32-23.56-.26-3.79.03-7.58.16-11.37.05-3.71-.1-7.36-.24-11.07.12-2.07.2-4.14.41-6.23.31-2.11-.09-4.19-.42-6.29-.58-4.16-.32-8.33.32-12.49.3-6.05-.03-12.08,0-18.12.1-1.88.03-1.88,2.95,0,2.92h0Z"/>
    <path class="st15" d="M39.25,363.18c1.68-.06,3.36-.28,5.04-.35,3.48-.15,6.88.03,10.35.27,7.37.51,14.77-.11,22.15-.2,3.78-.05,7.55-.36,11.33-.29,3.68.08,7.34.32,11.02.28,7.81-.1,15.61-.08,23.42-.26,4.06-.09,8.05.45,12.1.5,3.92.05,7.86.19,11.77.02,7.97-.34,15.9-.46,23.88-.35,7.83.12,15.62.51,23.45.44,7.58-.07,15.16.03,22.74-.06,4.07-.05,8.14-.07,12.21-.1s7.95-.58,11.92-.49,7.86.48,11.82.5c2.1.01,4.2.06,6.31.07,1.88.01,1.88-2.91,0-2.92-5.14-.04-10.26-.09-15.39-.44-3.56-.24-7.01.06-10.56.27-3.64.21-7.32.14-10.97.16-7.46.04-14.93-.07-22.4.01-7.8.09-15.59.21-23.39-.22-15.93-.9-31.85.96-47.77-.2-3.92-.28-7.84,0-11.76.05-3.9.04-7.8,0-11.7.03-3.79.02-7.58.18-11.37.03s-7.56-.26-11.36-.09c-8.21.37-16.49.67-24.72.49-3.96-.09-7.85-.57-11.82-.45-2.11.06-4.2.32-6.31.4-1.87.07-1.88,2.99,0,2.92h0Z"/>
    <path class="st15" d="M50.91,320.63c.2,3.11.52,6.21.72,9.32.05.76.64,1.5,1.46,1.46.75-.03,1.51-.64,1.46-1.46-.2-3.11-.52-6.21-.72-9.32-.05-.76-.64-1.5-1.46-1.46-.75.03-1.51.64-1.46,1.46h0Z"/>
    <path class="st15" d="M70.43,320.63c.19,3.12-.08,6.24.11,9.36.05.76.64,1.5,1.46,1.46.75-.03,1.51-.64,1.46-1.46-.19-3.12.08-6.24-.11-9.36-.05-.76-.64-1.5-1.46-1.46-.75.03-1.51.64-1.46,1.46h0Z"/>
    <path class="st15" d="M89.62,320.64c.2,3.11.38,6.22.58,9.33.05.76.64,1.5,1.46,1.46.75-.03,1.51-.64,1.46-1.46-.2-3.11-.38-6.22-.58-9.33-.05-.76-.64-1.5-1.46-1.46-.75.03-1.51.64-1.46,1.46h0Z"/>
    <path class="st15" d="M108.67,320.66c.21,3.18.82,6.14,1.03,9.3.05.76.64,1.5,1.46,1.46.75-.03,1.51-.64,1.46-1.46-.21-3.18-.82-6.14-1.03-9.3-.05-.76-.64-1.5-1.46-1.46-.75.03-1.51.64-1.46,1.46h0Z"/>
    <path class="st15" d="M128.12,320.66c.2,3.11.61,6.2.82,9.32.05.76.64,1.5,1.46,1.46.75-.03,1.51-.64,1.46-1.46-.2-3.11-.61-6.2-.82-9.32-.05-.76-.64-1.5-1.46-1.46-.75.03-1.51.64-1.46,1.46h0Z"/>
    <path class="st15" d="M147.99,320.63c.2,3.11.29,6.23.48,9.34.05.76.64,1.5,1.46,1.46.75-.03,1.51-.64,1.46-1.46-.2-3.11-.29-6.23-.48-9.34-.05-.76-.64-1.5-1.46-1.46-.75.03-1.51.64-1.46,1.46h0Z"/>
    <path class="st15" d="M167.24,320.64c.2,3.11.3,6.23.5,9.34.05.76.64,1.5,1.46,1.46.75-.03,1.51-.64,1.46-1.46-.2-3.11-.3-6.23-.5-9.34-.05-.76-.64-1.5-1.46-1.46-.75.03-1.51.64-1.46,1.46h0Z"/>
    <path class="st15" d="M186.94,320.62c.2,3.11.39,6.22.59,9.33.05.76.64,1.5,1.46,1.46.75-.03,1.51-.64,1.46-1.46-.2-3.11-.39-6.22-.59-9.33-.05-.76-.64-1.5-1.46-1.46-.75.03-1.51.64-1.46,1.46h0Z"/>
    <path class="st15" d="M206.25,320.63c.19,3.12-.2,6.25-.02,9.37.05.76.64,1.5,1.46,1.46.75-.03,1.51-.64,1.46-1.46-.19-3.12.2-6.25.02-9.37-.05-.76-.64-1.5-1.46-1.46-.75.03-1.51.64-1.46,1.46h0Z"/>
    <path class="st15" d="M225.18,320.66c.21,3.11.69,6.2.9,9.31.05.76.64,1.5,1.46,1.46.75-.03,1.51-.64,1.46-1.46-.21-3.11-.69-6.2-.9-9.31-.05-.76-.64-1.5-1.46-1.46-.75.03-1.51.64-1.46,1.46h0Z"/>
    <path class="st15" d="M244.76,320.65c.2,3.11.21,6.23.41,9.34.05.76.64,1.5,1.46,1.46.75-.03,1.51-.64,1.46-1.46-.2-3.11-.21-6.23-.41-9.34-.05-.76-.64-1.5-1.46-1.46-.75.03-1.51.64-1.46,1.46h0Z"/>
    <path class="st15" d="M50.98,344.75c.19,3.12-.12,6.24.07,9.36.05.76.64,1.5,1.46,1.46.75-.03,1.51-.64,1.46-1.46-.19-3.12.12-6.24-.07-9.36-.05-.76-.64-1.5-1.46-1.46-.75.03-1.51.64-1.46,1.46h0Z"/>
    <path class="st15" d="M70.09,344.77c.2,3.11.43,6.22.63,9.33.05.76.64,1.5,1.46,1.46.75-.03,1.51-.64,1.46-1.46-.2-3.11-.43-6.22-.63-9.33-.05-.76-.64-1.5-1.46-1.46-.75.03-1.51.64-1.46,1.46h0Z"/>
    <path class="st15" d="M89.72,344.76c.2,3.11.58,6.21.78,9.32.05.76.64,1.5,1.46,1.46.75-.03,1.51-.64,1.46-1.46-.2-3.11-.58-6.21-.78-9.32-.05-.76-.64-1.5-1.46-1.46-.75.03-1.51.64-1.46,1.46h0Z"/>
    <path class="st15" d="M108.92,344.77c.2,3.11.35,6.22.55,9.33.05.76.64,1.5,1.46,1.46.75-.03,1.51-.64,1.46-1.46-.2-3.11-.35-6.22-.55-9.33-.05-.76-.64-1.5-1.46-1.46-.75.03-1.51.64-1.46,1.46h0Z"/>
    <path class="st15" d="M128.61,344.75c.19,3.11.11,6.24.3,9.35.05.76.64,1.5,1.46,1.46.75-.03,1.51-.64,1.46-1.46-.19-3.11-.11-6.24-.3-9.35-.05-.76-.64-1.5-1.46-1.46-.75.03-1.51.64-1.46,1.46h0Z"/>
    <path class="st15" d="M148.08,344.75c.2,3.11.45,6.22.65,9.33.05.76.64,1.5,1.46,1.46.75-.03,1.51-.64,1.46-1.46-.2-3.11-.45-6.22-.65-9.33-.05-.76-.64-1.5-1.46-1.46-.75.03-1.51.64-1.46,1.46h0Z"/>
    <path class="st15" d="M166.92,344.78c.2,3.11.39,6.22.59,9.33.05.76.64,1.5,1.46,1.46.75-.03,1.51-.64,1.46-1.46-.2-3.11-.39-6.22-.59-9.33-.05-.76-.64-1.5-1.46-1.46-.75.03-1.51.64-1.46,1.46h0Z"/>
    <path class="st15" d="M186.54,344.77c.2,3.11.49,6.21.69,9.32.05.76.64,1.5,1.46,1.46.75-.03,1.51-.64,1.46-1.46-.2-3.11-.49-6.21-.69-9.32-.05-.76-.64-1.5-1.46-1.46-.75.03-1.51.64-1.46,1.46h0Z"/>
    <path class="st15" d="M206,344.77c.2,3.11.44,6.22.64,9.33.05.76.64,1.5,1.46,1.46.75-.03,1.51-.64,1.46-1.46-.2-3.11-.44-6.22-.64-9.33-.05-.76-.64-1.5-1.46-1.46-.75.03-1.51.64-1.46,1.46h0Z"/>
    <path class="st15" d="M225.72,344.75c.19,3.12-.25,6.25-.06,9.37.05.76.64,1.5,1.46,1.46.75-.03,1.51-.64,1.46-1.46-.19-3.12.25-6.25.06-9.37-.05-.76-.64-1.5-1.46-1.46-.75.03-1.51.64-1.46,1.46h0Z"/>
    <path class="st15" d="M245.17,344.74c.2,3.11.22,6.23.41,9.34.05.76.64,1.5,1.46,1.46.75-.03,1.51-.64,1.46-1.46-.2-3.11-.22-6.23-.41-9.34-.05-.76-.64-1.5-1.46-1.46-.75.03-1.51.64-1.46,1.46h0Z"/>
    <path class="st6" d="M179.87,277.17c.96-1.89,1.93-3.81,3.21-5.51s2.96-3.08,4.72-4.25c3.69-2.46,7.81-3.96,12.23-4.38,1.85-.18,1.87-3.1,0-2.92-4.94.47-9.57,2.03-13.71,4.78-1.92,1.28-3.76,2.76-5.2,4.57-1.53,1.92-2.67,4.06-3.78,6.24-.84,1.67,1.67,3.15,2.52,1.47h0Z"/>
    <path class="st6" d="M199.71,239.91c2.46-1.27,5.08-2.42,7.89-2.51,2.85-.09,5.64.55,8.26,1.64.73.3,1.61-.33,1.8-1.02.23-.84-.29-1.49-1.02-1.8-2.93-1.22-6.17-1.9-9.35-1.73-3.23.17-6.22,1.43-9.06,2.9-1.67.86-.2,3.38,1.47,2.52h0Z"/>
    <path class="st6" d="M222.93,273.57c2.19,1.3,4.31,2.71,5.94,4.7s2.64,4.26,3.43,6.6c.25.75,1.01,1.24,1.8,1.02.73-.2,1.27-1.05,1.02-1.8-.94-2.79-2.2-5.42-4.05-7.73s-4.22-3.87-6.67-5.32c-1.62-.96-3.09,1.56-1.47,2.52h0Z"/>
  </g>
  <path class="st20" d="M137.54,330.07c.8,1.08,1.8,2.02,2.71,3.04,2.28,2.55,4.75,5.01,7.05,7.56s4.56,5.16,5.66,8.54c.82,2.52,1.26,5.15,1.09,7.78s-.66,5.22-1.38,7.76-1.91,4.94-2.81,7.34c-1.43,3.82-2.81,7.65-4.23,11.47-1.59,4.25-2.75,7.1-6.73,8.13-1.24.32-8.79-.03-7.96-2.53-1.35,4.07-5.15,7.24-9.07,7.82s-8.06-1.32-10.36-4.85c-2.05,4.2-6.32,6.55-10.67,6.61-4.35.06-8.68-2.07-10.82-6.21-2.74,3.62-8.5,1.56-10.84-2.39-1.18-2-1.8-4.27-2.02-6.65s-.19-4.7-.07-7.01c.15-3.03.52-6.07.63-9.13s.03-6.1.12-9.15.44-6.09.54-9.14.05-6.11.18-9.15.01-6.12.2-9.16.32-6.11.58-9.14,1.18-6.02,1.54-9.04c.61-5.14,3.2-7.36,6.98-8.05,3.51-.64,7.79-.1,11.59-.41,3.2-.26,6.41-.33,9.62-.49,3.2-.16,6.42.02,9.62-.05,3.21-.06,6.41-.64,9.62-.6.02,0,2.65,12.63,2.9,13.49.71,2.47,1.53,4.83,2.61,7.04s2.22,4.53,3.72,6.56Z"/>
  <path class="st13" d="M140.41,268.11c-.62,3.1-1.44,6.21-1.63,9.39s-.07,6.37-.06,9.53c.01,3.38.11,6.76.21,10.14s.26,6.75.46,10.13.46,6.74.76,10.11.84,6.71,1.22,10.06c-.03-.28-3.99.29-9.79,1.32-2.81.5-6.14.8-9.68,1.46-3.05.56-6.28,1.27-9.59,1.89-3.19.59-6.39,1.44-9.58,2.02-3.31.6-6.53,1.38-9.6,1.91-3.53.61-6.82,1.19-9.66,1.62-4.87.73-8.19.65-9.46.47-.96-3.13-2.37-6.09-3.07-9.37s-.82-6.57-1.32-9.87c-.49-3.26-1.05-6.54-1.41-9.84s-1-6.58-1.29-9.87-.41-6.65-.68-9.92-.37-6.68-.69-9.92c-.3-3-.66-6.03-.91-9.08-.25-3.02-.5-6.06-.66-9.1s.09-6.09.04-9.13-.43-6.09-.33-9.12.6-6.07.88-9.08.81-6.03,1.31-9.01.91-6.02,1.68-8.95c.77-2.95,1.77-5.81,2.85-8.64,1.08-2.84,1.89-5.81,3.31-8.51s3.02-5.28,4.79-7.79c1.63-2.32,3.56-4.4,5.44-6.51,1.87-2.11,3.67-4.32,5.74-6.25s4.37-3.6,6.56-5.38,4.29-3.71,6.55-5.38c2.41-1.78,5.09-3.27,7.63-5.02s4.94-3.51,7.52-5.18,5.07-3.35,7.7-4.92c2.6-1.55,5.42-2.76,8.1-4.22,2.66-1.46,5.43-2.71,8.16-4.07,2.73-1.35,5.48-2.62,8.26-3.84s5.44-2.78,8.28-3.86,5.71-2.17,8.6-3.09,5.8-1.96,8.74-2.7c2.96-.75,6.06-.86,9.04-1.4,3.01-.54,6-1.02,9.02-1.32,3.04-.3,6.07-.5,9.1-.53s6.36-.22,9.39.04c-.86,3.1-2.21,6.32-3.08,9.42s-1.86,6.16-2.75,9.26-1.23,6.34-2.13,9.43c-.9,3.09-2.18,6.07-3.09,9.16-.91,3.09-1.34,6.32-2.26,9.4-.92,3.08-1.94,6.14-2.88,9.22-.78,2.56-1.53,5.42-2.27,8.47-.66,2.74-1.77,5.51-2.52,8.42s-1.26,5.72-2.17,8.5c-.93,2.83-1.65,5.74-2.88,8.32-1.3,2.73-2.85,5.32-4.62,7.53-1.86,2.32-4.33,4.01-6.86,5.48-2.75,1.61-5.51,3.19-8.18,4.84-2.73,1.68-5.46,3.33-7.97,5.19-2.56,1.91-5.09,3.89-7.29,6.14-2.19,2.24-3.7,5.08-5.4,7.82-1.6,2.59-3.18,5.29-4.23,8.45-.62,1.88-.94,3.83-1.32,5.77Z"/>
  <path class="st21" d="M133.59,333.72c1.05,3.43,2.16,6.88,2.92,10.38s1.44,7.02,2.55,10.49c2.17,6.82,3.37,14.03,4.58,21.08.32,1.85,3.13,1.06,2.82-.78-1.21-7.05-2.4-14.26-4.58-21.08-1.07-3.37-1.75-6.73-2.48-10.18s-1.91-7.16-2.99-10.69c-.55-1.79-3.37-1.03-2.82.78h0Z"/>
  <path class="st21" d="M126.27,380.73c.46,2.32.67,4.71,1.59,6.91.15.37.31.66.67.87.31.18.77.26,1.13.15.67-.22,1.34-1.04,1.02-1.8-.92-2.2-1.13-4.59-1.59-6.91-.15-.75-1.08-1.25-1.8-1.02-.8.26-1.18.99-1.02,1.8h0Z"/>
  <path class="st21" d="M105.66,383.47c.48.44.93.91,1.34,1.41.06.07.13.14.17.22-.06-.09-.13-.17-.03-.03s.2.27.29.4c.19.27.37.55.54.84.16.27.31.55.45.83.07.15.14.3.21.45.01.03.12.26.04.08-.09-.2.04.09.05.13.24.62.44,1.26.58,1.91.17.75,1.07,1.25,1.8,1.02.78-.25,1.2-1,1.02-1.8-.64-2.88-2.23-5.53-4.4-7.53-.56-.52-1.52-.6-2.07,0-.52.56-.6,1.51,0,2.07h0Z"/>
  <path class="st21" d="M85.4,380.76c.87,1.98,2.12,3.75,2.99,5.72.14.31.56.58.87.67.35.1.82.05,1.13-.15s.59-.5.67-.87c.09-.41.02-.75-.15-1.13-.87-1.98-2.12-3.75-2.99-5.72-.14-.31-.56-.58-.87-.67-.35-.1-.82-.05-1.13.15s-.59.5-.67.87c-.09.41-.02.75.15,1.13h0Z"/>
  <path class="st11" d="M183.89,211.42c-3.55.92-7.05,2.08-10.57,3.13-3.46,1.03-6.85,2.22-10.15,3.69-6.18,2.77-12.08,6.43-16.49,11.65-4.29,5.07-6.88,11.71-8.35,18.14-1.64,7.2-1.89,14.75-1.88,22.11,0,4.04-.25,8.05.05,12.09s.49,8.22.73,12.33c.11,1.87,3.03,1.88,2.92,0-.4-6.81-1.03-13.64-.83-20.46s0-14.27,1.09-21.37c.98-6.42,3.02-13.11,6.65-18.56,3.72-5.58,9.44-9.46,15.37-12.37,3.47-1.71,7.08-3.04,10.78-4.17,3.8-1.16,7.61-2.4,11.45-3.39,1.82-.47,1.05-3.29-.78-2.82h0Z"/>
  <path class="st8" d="M74.94,319.02c4.46-.38,8.9-.82,13.33-1.35,4.4-.53,8.6-1.59,12.93-2.49,4.19-.86,8.27-2.07,12.5-2.7,4.43-.66,8.68-1.99,12.96-3.3,1.79-.55,1.03-3.37-.78-2.82-4.08,1.25-8.16,2.58-12.38,3.22-4.23.64-8.29,1.8-12.47,2.67-4.27.89-8.43,1.98-12.77,2.5-4.44.54-8.88.98-13.33,1.35-1.86.16-1.88,3.08,0,2.92h0Z"/>
  <path class="st11" d="M317.3,183.49c-.02,6.07-.25,12.14-.33,18.2-.04,3.14-.19,6.28-.22,9.42s.52,6.06.63,9.1c.11,3.05-.41,6.06-.54,9.1s.1,6.07.16,9.1c.1,6.19.22,12.33.07,18.52-.08,3.35.06,6.7.08,10.04.03,3.57-.54,7.1-.59,10.67-.03,1.88,2.89,1.88,2.92,0,.04-3.04.54-6.06.59-9.1.05-3.03-.1-6.07-.11-9.1s.2-6.28.23-9.42-.21-6.07-.26-9.1c-.04-3.04-.16-6.07-.2-9.1-.04-3.05.38-6.06.54-9.1.16-3.06-.34-6.06-.54-9.1s.06-6.28.13-9.42c.15-6.91.33-13.81.36-20.72,0-1.88-2.91-1.88-2.92,0h0Z"/>
  <path class="st8" d="M430.9,238.13c-4.47-1.51-8.62-2.94-12.5-5.7-3.84-2.74-7.47-5.73-11.01-8.85-7.15-6.32-14.39-12.58-21.42-19.05-1.38-1.27-3.45.79-2.07,2.07,7.32,6.73,14.85,13.25,22.3,19.83,3.49,3.09,7.14,6,10.95,8.69,4,2.83,8.35,4.28,12.95,5.83,1.78.6,2.55-2.22.78-2.82h0Z"/>
  <path class="st20" d="M472.27,198.56c1.5-2.43,2.81-5.06,3.52-8.03.67-2.78,1-5.75,1.26-8.74s.16-5.93.31-8.82c.15-3.08.68-6.03,1.02-8.76.3-2.37.06-5.26-.07-8.17s-.13-5.65-1.16-8.06c-1.08-2.55-2.87-4.74-5.52-5.92-2.37-1.05-6.59-.69-10.75.64-3.47,1.11-7.05,2.91-9.59,5.1-3.15,2.71-4.68,6.19-3.02,9.64,1.94,4.03,7.38,3.74,11.79,3.06-3.75.05-7.79.8-10.37,3.52s-2.52,8.35.81,10.07c2.67,1.38,6.48-.29,9.35.6-2.3,1.21-5.02,2.57-6.63,4.61-1.61,2.04-2.48,5.26-1.02,7.41,1.7,2.5,5.64,2.56,8.66,2.54-2.9,1.49-5.77,3.75-7.31,6.63-.79,1.49-.99,3.32-.63,4.97.45,2.08,2.08,3.91,4.07,4.65,2.87,1.06,6.12.53,8.89-.78,2.68-1.27,4.81-3.64,6.37-6.16Z"/>
  <path class="st7" d="M479.86,81.02c-2.07-2-3.38-4.66-6.83-4.38-1.3.1-2.36,1.13-3.31,2.02-.69.64-1.29,2.65-1.95,2.99-1.75.93-4.22-1.38-5.78-1.81-2.48-.68-4.73.3-6.28,2.15s-2.36,4.33-2.33,6.54c.04,2.41,1.03,5.22,3.14,6.39,1.98,1.09,4.55.55,6.78.92,3.49.58,6.2,2.85,9.02,5.08s5.75,4.13,9.04,5.27c.43.15.84.53,1.28.42.7-.18,1.41-.82,1.69-1.47,1.24-2.88.97-6.11.68-9.24-.28-3.06-.76-6.21-1.86-9.08-.79-2.07-1.72-4.26-3.31-5.8Z"/>
  <path class="st7" d="M451.45,116.08c-.08-.54.51-1.52.7-2.01.26-.68.54-1.36.81-2.03.57-1.39,1.17-2.77,1.77-4.15,1.03-2.35,2.05-4.71,3.38-6.91,2.6-4.32,6.44-8.52,10.69-11.26,1.57-1.02.11-3.54-1.47-2.52-4.81,3.1-9.13,7.8-12,12.75-1.51,2.61-2.68,5.42-3.87,8.19-.63,1.46-1.24,2.92-1.83,4.39s-1.24,2.76-1,4.33c.29,1.85,3.1,1.07,2.82-.78h0Z"/>
  <path class="st17" d="M418.43,81.29c5.07-4.59,12.8-6.84,19.52-5.36,1.83.4,2.61-2.41.78-2.82-7.78-1.71-16.48.8-22.36,6.11-1.4,1.26.67,3.32,2.07,2.07h0Z"/>
  <path class="st17" d="M468.45,85.53c2.17,1.31,4.02,3.15,5.52,5.19,1.58,2.15,2.52,4.62,3.17,7.19.46,1.82,3.28,1.05,2.82-.78-.72-2.87-1.81-5.69-3.6-8.06-1.79-2.37-3.88-4.51-6.43-6.06-1.61-.97-3.08,1.55-1.47,2.52h0Z"/>
  <path class="st8" d="M207.17,127.71c-1.57,2.98-3.47,5.8-4.79,8.91s-2.33,6.55-3.61,9.79-2.39,6.7-3.81,9.96-2.52,6.39-3.12,9.89c-1.13,6.59-3.96,13.31-.85,19.78,1.48,3.09,3.86,5.57,6.08,8.13,2.41,2.77,4.82,5.53,7.22,8.31,1.31,1.52,2.66,2.98,4.09,4.39,1.34,1.33,3.07,2.72,3.98,4.4,1,1.85-.56,4.09-1.15,5.88-.63,1.91-1.12,3.85-1.8,5.75-.63,1.77,2.19,2.54,2.82.78.58-1.63,1.03-3.29,1.54-4.93s1.35-3.21,1.74-4.88c.78-3.28-1.71-5.69-3.82-7.82-5.07-5.12-9.66-10.66-14.42-16.07-2.25-2.56-4.44-5.54-4.8-9.04s.84-7.1,1.58-10.59c.74-3.46,1.12-6.91,2.45-10.22,1.28-3.18,2.58-6.32,3.78-9.53,1.37-3.69,2.75-7.36,4.08-11.07s3.52-6.9,5.33-10.34c.88-1.66-1.64-3.14-2.52-1.47h0Z"/>
  <path class="st8" d="M317.6,375.98c.54-.08.85-3.71.79-8.1-.03-2.62-.41-5.53-.51-8.16-.16-4.11-.25-7.63-.25-8.24-1.41.19-5.12.32-9.33.47-3.04.1-6.34.55-9.27.84-4.7.47-8.66,1.01-8.66,2.56,0,3.57.44,7.14.44,10.71,0,.88-.45,1.93-.03,2.71.4.74,1.49.89,2.19,1.34,2.42,1.57,4.83,3.17,7.55,4.13s5.57,1.61,8.43,1.92c2.86.3,5.78.21,8.64-.17Z"/>
</svg>